<?xml version="1.0" encoding="utf-8" standalone="no"?>
<!DOCTYPE svg PUBLIC "-//W3C//DTD SVG 1.1//EN"
  "http://www.w3.org/Graphics/SVG/1.1/DTD/svg11.dtd">
<!-- Created with matplotlib (https://matplotlib.org/) -->
<svg height="1257.771875pt" version="1.1" viewBox="0 0 2943.892806 1257.771875" width="2943.892806pt" xmlns="http://www.w3.org/2000/svg" xmlns:xlink="http://www.w3.org/1999/xlink">
 <defs>
  <style type="text/css">
*{stroke-linecap:butt;stroke-linejoin:round;}
  </style>
 </defs>
 <g id="figure_1">
  <g id="patch_1">
   <path d="M 0 1257.771875 
L 2943.892806 1257.771875 
L 2943.892806 0 
L 0 0 
z
" style="fill:#ffffff;"/>
  </g>
  <g id="axes_1">
   <g id="patch_2">
    <path d="M 122.329688 1147.629688 
L 2912.329688 1147.629688 
L 2912.329688 60.429688 
L 122.329688 60.429688 
z
" style="fill:#ffffff;"/>
   </g>
   <g id="matplotlib.axis_1">
    <g id="xtick_1">
     <g id="line2d_1">
      <defs>
       <path d="M 0 0 
L 0 3.5 
" id="m19e4bad90a" style="stroke:#000000;stroke-width:0.8;"/>
      </defs>
      <g>
       <use style="stroke:#000000;stroke-width:0.8;" x="136.141569" xlink:href="#m19e4bad90a" y="1147.629688"/>
      </g>
     </g>
     <g id="text_1">
      <!-- 0 -->
      <defs>
       <path d="M 31.78125 66.40625 
Q 24.171875 66.40625 20.328125 58.90625 
Q 16.5 51.421875 16.5 36.375 
Q 16.5 21.390625 20.328125 13.890625 
Q 24.171875 6.390625 31.78125 6.390625 
Q 39.453125 6.390625 43.28125 13.890625 
Q 47.125 21.390625 47.125 36.375 
Q 47.125 51.421875 43.28125 58.90625 
Q 39.453125 66.40625 31.78125 66.40625 
z
M 31.78125 74.21875 
Q 44.046875 74.21875 50.515625 64.515625 
Q 56.984375 54.828125 56.984375 36.375 
Q 56.984375 17.96875 50.515625 8.265625 
Q 44.046875 -1.421875 31.78125 -1.421875 
Q 19.53125 -1.421875 13.0625 8.265625 
Q 6.59375 17.96875 6.59375 36.375 
Q 6.59375 54.828125 13.0625 64.515625 
Q 19.53125 74.21875 31.78125 74.21875 
z
" id="DejaVuSans-48"/>
      </defs>
      <g transform="translate(123.416569 1185.023438)scale(0.4 -0.4)">
       <use xlink:href="#DejaVuSans-48"/>
      </g>
     </g>
    </g>
    <g id="xtick_2">
     <g id="line2d_2">
      <g>
       <use style="stroke:#000000;stroke-width:0.8;" x="412.379192" xlink:href="#m19e4bad90a" y="1147.629688"/>
      </g>
     </g>
     <g id="text_2">
      <!-- 10 -->
      <defs>
       <path d="M 12.40625 8.296875 
L 28.515625 8.296875 
L 28.515625 63.921875 
L 10.984375 60.40625 
L 10.984375 69.390625 
L 28.421875 72.90625 
L 38.28125 72.90625 
L 38.28125 8.296875 
L 54.390625 8.296875 
L 54.390625 0 
L 12.40625 0 
z
" id="DejaVuSans-49"/>
      </defs>
      <g transform="translate(386.929192 1185.023438)scale(0.4 -0.4)">
       <use xlink:href="#DejaVuSans-49"/>
       <use x="63.623047" xlink:href="#DejaVuSans-48"/>
      </g>
     </g>
    </g>
    <g id="xtick_3">
     <g id="line2d_3">
      <g>
       <use style="stroke:#000000;stroke-width:0.8;" x="688.616816" xlink:href="#m19e4bad90a" y="1147.629688"/>
      </g>
     </g>
     <g id="text_3">
      <!-- 20 -->
      <defs>
       <path d="M 19.1875 8.296875 
L 53.609375 8.296875 
L 53.609375 0 
L 7.328125 0 
L 7.328125 8.296875 
Q 12.9375 14.109375 22.625 23.890625 
Q 32.328125 33.6875 34.8125 36.53125 
Q 39.546875 41.84375 41.421875 45.53125 
Q 43.3125 49.21875 43.3125 52.78125 
Q 43.3125 58.59375 39.234375 62.25 
Q 35.15625 65.921875 28.609375 65.921875 
Q 23.96875 65.921875 18.8125 64.3125 
Q 13.671875 62.703125 7.8125 59.421875 
L 7.8125 69.390625 
Q 13.765625 71.78125 18.9375 73 
Q 24.125 74.21875 28.421875 74.21875 
Q 39.75 74.21875 46.484375 68.546875 
Q 53.21875 62.890625 53.21875 53.421875 
Q 53.21875 48.921875 51.53125 44.890625 
Q 49.859375 40.875 45.40625 35.40625 
Q 44.1875 33.984375 37.640625 27.21875 
Q 31.109375 20.453125 19.1875 8.296875 
z
" id="DejaVuSans-50"/>
      </defs>
      <g transform="translate(663.166816 1185.023438)scale(0.4 -0.4)">
       <use xlink:href="#DejaVuSans-50"/>
       <use x="63.623047" xlink:href="#DejaVuSans-48"/>
      </g>
     </g>
    </g>
    <g id="xtick_4">
     <g id="line2d_4">
      <g>
       <use style="stroke:#000000;stroke-width:0.8;" x="964.85444" xlink:href="#m19e4bad90a" y="1147.629688"/>
      </g>
     </g>
     <g id="text_4">
      <!-- 30 -->
      <defs>
       <path d="M 40.578125 39.3125 
Q 47.65625 37.796875 51.625 33 
Q 55.609375 28.21875 55.609375 21.1875 
Q 55.609375 10.40625 48.1875 4.484375 
Q 40.765625 -1.421875 27.09375 -1.421875 
Q 22.515625 -1.421875 17.65625 -0.515625 
Q 12.796875 0.390625 7.625 2.203125 
L 7.625 11.71875 
Q 11.71875 9.328125 16.59375 8.109375 
Q 21.484375 6.890625 26.8125 6.890625 
Q 36.078125 6.890625 40.9375 10.546875 
Q 45.796875 14.203125 45.796875 21.1875 
Q 45.796875 27.640625 41.28125 31.265625 
Q 36.765625 34.90625 28.71875 34.90625 
L 20.21875 34.90625 
L 20.21875 43.015625 
L 29.109375 43.015625 
Q 36.375 43.015625 40.234375 45.921875 
Q 44.09375 48.828125 44.09375 54.296875 
Q 44.09375 59.90625 40.109375 62.90625 
Q 36.140625 65.921875 28.71875 65.921875 
Q 24.65625 65.921875 20.015625 65.03125 
Q 15.375 64.15625 9.8125 62.3125 
L 9.8125 71.09375 
Q 15.4375 72.65625 20.34375 73.4375 
Q 25.25 74.21875 29.59375 74.21875 
Q 40.828125 74.21875 47.359375 69.109375 
Q 53.90625 64.015625 53.90625 55.328125 
Q 53.90625 49.265625 50.4375 45.09375 
Q 46.96875 40.921875 40.578125 39.3125 
z
" id="DejaVuSans-51"/>
      </defs>
      <g transform="translate(939.40444 1185.023438)scale(0.4 -0.4)">
       <use xlink:href="#DejaVuSans-51"/>
       <use x="63.623047" xlink:href="#DejaVuSans-48"/>
      </g>
     </g>
    </g>
    <g id="xtick_5">
     <g id="line2d_5">
      <g>
       <use style="stroke:#000000;stroke-width:0.8;" x="1241.092064" xlink:href="#m19e4bad90a" y="1147.629688"/>
      </g>
     </g>
     <g id="text_5">
      <!-- 40 -->
      <defs>
       <path d="M 37.796875 64.3125 
L 12.890625 25.390625 
L 37.796875 25.390625 
z
M 35.203125 72.90625 
L 47.609375 72.90625 
L 47.609375 25.390625 
L 58.015625 25.390625 
L 58.015625 17.1875 
L 47.609375 17.1875 
L 47.609375 0 
L 37.796875 0 
L 37.796875 17.1875 
L 4.890625 17.1875 
L 4.890625 26.703125 
z
" id="DejaVuSans-52"/>
      </defs>
      <g transform="translate(1215.642064 1185.023438)scale(0.4 -0.4)">
       <use xlink:href="#DejaVuSans-52"/>
       <use x="63.623047" xlink:href="#DejaVuSans-48"/>
      </g>
     </g>
    </g>
    <g id="xtick_6">
     <g id="line2d_6">
      <g>
       <use style="stroke:#000000;stroke-width:0.8;" x="1517.329688" xlink:href="#m19e4bad90a" y="1147.629688"/>
      </g>
     </g>
     <g id="text_6">
      <!-- 50 -->
      <defs>
       <path d="M 10.796875 72.90625 
L 49.515625 72.90625 
L 49.515625 64.59375 
L 19.828125 64.59375 
L 19.828125 46.734375 
Q 21.96875 47.46875 24.109375 47.828125 
Q 26.265625 48.1875 28.421875 48.1875 
Q 40.625 48.1875 47.75 41.5 
Q 54.890625 34.8125 54.890625 23.390625 
Q 54.890625 11.625 47.5625 5.09375 
Q 40.234375 -1.421875 26.90625 -1.421875 
Q 22.3125 -1.421875 17.546875 -0.640625 
Q 12.796875 0.140625 7.71875 1.703125 
L 7.71875 11.625 
Q 12.109375 9.234375 16.796875 8.0625 
Q 21.484375 6.890625 26.703125 6.890625 
Q 35.15625 6.890625 40.078125 11.328125 
Q 45.015625 15.765625 45.015625 23.390625 
Q 45.015625 31 40.078125 35.4375 
Q 35.15625 39.890625 26.703125 39.890625 
Q 22.75 39.890625 18.8125 39.015625 
Q 14.890625 38.140625 10.796875 36.28125 
z
" id="DejaVuSans-53"/>
      </defs>
      <g transform="translate(1491.879688 1185.023438)scale(0.4 -0.4)">
       <use xlink:href="#DejaVuSans-53"/>
       <use x="63.623047" xlink:href="#DejaVuSans-48"/>
      </g>
     </g>
    </g>
    <g id="xtick_7">
     <g id="line2d_7">
      <g>
       <use style="stroke:#000000;stroke-width:0.8;" x="1793.567311" xlink:href="#m19e4bad90a" y="1147.629688"/>
      </g>
     </g>
     <g id="text_7">
      <!-- 60 -->
      <defs>
       <path d="M 33.015625 40.375 
Q 26.375 40.375 22.484375 35.828125 
Q 18.609375 31.296875 18.609375 23.390625 
Q 18.609375 15.53125 22.484375 10.953125 
Q 26.375 6.390625 33.015625 6.390625 
Q 39.65625 6.390625 43.53125 10.953125 
Q 47.40625 15.53125 47.40625 23.390625 
Q 47.40625 31.296875 43.53125 35.828125 
Q 39.65625 40.375 33.015625 40.375 
z
M 52.59375 71.296875 
L 52.59375 62.3125 
Q 48.875 64.0625 45.09375 64.984375 
Q 41.3125 65.921875 37.59375 65.921875 
Q 27.828125 65.921875 22.671875 59.328125 
Q 17.53125 52.734375 16.796875 39.40625 
Q 19.671875 43.65625 24.015625 45.921875 
Q 28.375 48.1875 33.59375 48.1875 
Q 44.578125 48.1875 50.953125 41.515625 
Q 57.328125 34.859375 57.328125 23.390625 
Q 57.328125 12.15625 50.6875 5.359375 
Q 44.046875 -1.421875 33.015625 -1.421875 
Q 20.359375 -1.421875 13.671875 8.265625 
Q 6.984375 17.96875 6.984375 36.375 
Q 6.984375 53.65625 15.1875 63.9375 
Q 23.390625 74.21875 37.203125 74.21875 
Q 40.921875 74.21875 44.703125 73.484375 
Q 48.484375 72.75 52.59375 71.296875 
z
" id="DejaVuSans-54"/>
      </defs>
      <g transform="translate(1768.117311 1185.023438)scale(0.4 -0.4)">
       <use xlink:href="#DejaVuSans-54"/>
       <use x="63.623047" xlink:href="#DejaVuSans-48"/>
      </g>
     </g>
    </g>
    <g id="xtick_8">
     <g id="line2d_8">
      <g>
       <use style="stroke:#000000;stroke-width:0.8;" x="2069.804935" xlink:href="#m19e4bad90a" y="1147.629688"/>
      </g>
     </g>
     <g id="text_8">
      <!-- 70 -->
      <defs>
       <path d="M 8.203125 72.90625 
L 55.078125 72.90625 
L 55.078125 68.703125 
L 28.609375 0 
L 18.3125 0 
L 43.21875 64.59375 
L 8.203125 64.59375 
z
" id="DejaVuSans-55"/>
      </defs>
      <g transform="translate(2044.354935 1185.023438)scale(0.4 -0.4)">
       <use xlink:href="#DejaVuSans-55"/>
       <use x="63.623047" xlink:href="#DejaVuSans-48"/>
      </g>
     </g>
    </g>
    <g id="xtick_9">
     <g id="line2d_9">
      <g>
       <use style="stroke:#000000;stroke-width:0.8;" x="2346.042559" xlink:href="#m19e4bad90a" y="1147.629688"/>
      </g>
     </g>
     <g id="text_9">
      <!-- 80 -->
      <defs>
       <path d="M 31.78125 34.625 
Q 24.75 34.625 20.71875 30.859375 
Q 16.703125 27.09375 16.703125 20.515625 
Q 16.703125 13.921875 20.71875 10.15625 
Q 24.75 6.390625 31.78125 6.390625 
Q 38.8125 6.390625 42.859375 10.171875 
Q 46.921875 13.96875 46.921875 20.515625 
Q 46.921875 27.09375 42.890625 30.859375 
Q 38.875 34.625 31.78125 34.625 
z
M 21.921875 38.8125 
Q 15.578125 40.375 12.03125 44.71875 
Q 8.5 49.078125 8.5 55.328125 
Q 8.5 64.0625 14.71875 69.140625 
Q 20.953125 74.21875 31.78125 74.21875 
Q 42.671875 74.21875 48.875 69.140625 
Q 55.078125 64.0625 55.078125 55.328125 
Q 55.078125 49.078125 51.53125 44.71875 
Q 48 40.375 41.703125 38.8125 
Q 48.828125 37.15625 52.796875 32.3125 
Q 56.78125 27.484375 56.78125 20.515625 
Q 56.78125 9.90625 50.3125 4.234375 
Q 43.84375 -1.421875 31.78125 -1.421875 
Q 19.734375 -1.421875 13.25 4.234375 
Q 6.78125 9.90625 6.78125 20.515625 
Q 6.78125 27.484375 10.78125 32.3125 
Q 14.796875 37.15625 21.921875 38.8125 
z
M 18.3125 54.390625 
Q 18.3125 48.734375 21.84375 45.5625 
Q 25.390625 42.390625 31.78125 42.390625 
Q 38.140625 42.390625 41.71875 45.5625 
Q 45.3125 48.734375 45.3125 54.390625 
Q 45.3125 60.0625 41.71875 63.234375 
Q 38.140625 66.40625 31.78125 66.40625 
Q 25.390625 66.40625 21.84375 63.234375 
Q 18.3125 60.0625 18.3125 54.390625 
z
" id="DejaVuSans-56"/>
      </defs>
      <g transform="translate(2320.592559 1185.023438)scale(0.4 -0.4)">
       <use xlink:href="#DejaVuSans-56"/>
       <use x="63.623047" xlink:href="#DejaVuSans-48"/>
      </g>
     </g>
    </g>
    <g id="xtick_10">
     <g id="line2d_10">
      <g>
       <use style="stroke:#000000;stroke-width:0.8;" x="2622.280183" xlink:href="#m19e4bad90a" y="1147.629688"/>
      </g>
     </g>
     <g id="text_10">
      <!-- 90 -->
      <defs>
       <path d="M 10.984375 1.515625 
L 10.984375 10.5 
Q 14.703125 8.734375 18.5 7.8125 
Q 22.3125 6.890625 25.984375 6.890625 
Q 35.75 6.890625 40.890625 13.453125 
Q 46.046875 20.015625 46.78125 33.40625 
Q 43.953125 29.203125 39.59375 26.953125 
Q 35.25 24.703125 29.984375 24.703125 
Q 19.046875 24.703125 12.671875 31.3125 
Q 6.296875 37.9375 6.296875 49.421875 
Q 6.296875 60.640625 12.9375 67.421875 
Q 19.578125 74.21875 30.609375 74.21875 
Q 43.265625 74.21875 49.921875 64.515625 
Q 56.59375 54.828125 56.59375 36.375 
Q 56.59375 19.140625 48.40625 8.859375 
Q 40.234375 -1.421875 26.421875 -1.421875 
Q 22.703125 -1.421875 18.890625 -0.6875 
Q 15.09375 0.046875 10.984375 1.515625 
z
M 30.609375 32.421875 
Q 37.25 32.421875 41.125 36.953125 
Q 45.015625 41.5 45.015625 49.421875 
Q 45.015625 57.28125 41.125 61.84375 
Q 37.25 66.40625 30.609375 66.40625 
Q 23.96875 66.40625 20.09375 61.84375 
Q 16.21875 57.28125 16.21875 49.421875 
Q 16.21875 41.5 20.09375 36.953125 
Q 23.96875 32.421875 30.609375 32.421875 
z
" id="DejaVuSans-57"/>
      </defs>
      <g transform="translate(2596.830183 1185.023438)scale(0.4 -0.4)">
       <use xlink:href="#DejaVuSans-57"/>
       <use x="63.623047" xlink:href="#DejaVuSans-48"/>
      </g>
     </g>
    </g>
    <g id="xtick_11">
     <g id="line2d_11">
      <g>
       <use style="stroke:#000000;stroke-width:0.8;" x="2898.517806" xlink:href="#m19e4bad90a" y="1147.629688"/>
      </g>
     </g>
     <g id="text_11">
      <!-- 100 -->
      <g transform="translate(2860.342806 1185.023438)scale(0.4 -0.4)">
       <use xlink:href="#DejaVuSans-49"/>
       <use x="63.623047" xlink:href="#DejaVuSans-48"/>
       <use x="127.246094" xlink:href="#DejaVuSans-48"/>
      </g>
     </g>
    </g>
    <g id="text_12">
     <!-- Test Data Record -->
     <defs>
      <path d="M -0.296875 72.90625 
L 61.375 72.90625 
L 61.375 64.59375 
L 35.5 64.59375 
L 35.5 0 
L 25.59375 0 
L 25.59375 64.59375 
L -0.296875 64.59375 
z
" id="DejaVuSans-84"/>
      <path d="M 56.203125 29.59375 
L 56.203125 25.203125 
L 14.890625 25.203125 
Q 15.484375 15.921875 20.484375 11.0625 
Q 25.484375 6.203125 34.421875 6.203125 
Q 39.59375 6.203125 44.453125 7.46875 
Q 49.3125 8.734375 54.109375 11.28125 
L 54.109375 2.78125 
Q 49.265625 0.734375 44.1875 -0.34375 
Q 39.109375 -1.421875 33.890625 -1.421875 
Q 20.796875 -1.421875 13.15625 6.1875 
Q 5.515625 13.8125 5.515625 26.8125 
Q 5.515625 40.234375 12.765625 48.109375 
Q 20.015625 56 32.328125 56 
Q 43.359375 56 49.78125 48.890625 
Q 56.203125 41.796875 56.203125 29.59375 
z
M 47.21875 32.234375 
Q 47.125 39.59375 43.09375 43.984375 
Q 39.0625 48.390625 32.421875 48.390625 
Q 24.90625 48.390625 20.390625 44.140625 
Q 15.875 39.890625 15.1875 32.171875 
z
" id="DejaVuSans-101"/>
      <path d="M 44.28125 53.078125 
L 44.28125 44.578125 
Q 40.484375 46.53125 36.375 47.5 
Q 32.28125 48.484375 27.875 48.484375 
Q 21.1875 48.484375 17.84375 46.4375 
Q 14.5 44.390625 14.5 40.28125 
Q 14.5 37.15625 16.890625 35.375 
Q 19.28125 33.59375 26.515625 31.984375 
L 29.59375 31.296875 
Q 39.15625 29.25 43.1875 25.515625 
Q 47.21875 21.78125 47.21875 15.09375 
Q 47.21875 7.46875 41.1875 3.015625 
Q 35.15625 -1.421875 24.609375 -1.421875 
Q 20.21875 -1.421875 15.453125 -0.5625 
Q 10.6875 0.296875 5.421875 2 
L 5.421875 11.28125 
Q 10.40625 8.6875 15.234375 7.390625 
Q 20.0625 6.109375 24.8125 6.109375 
Q 31.15625 6.109375 34.5625 8.28125 
Q 37.984375 10.453125 37.984375 14.40625 
Q 37.984375 18.0625 35.515625 20.015625 
Q 33.0625 21.96875 24.703125 23.78125 
L 21.578125 24.515625 
Q 13.234375 26.265625 9.515625 29.90625 
Q 5.8125 33.546875 5.8125 39.890625 
Q 5.8125 47.609375 11.28125 51.796875 
Q 16.75 56 26.8125 56 
Q 31.78125 56 36.171875 55.265625 
Q 40.578125 54.546875 44.28125 53.078125 
z
" id="DejaVuSans-115"/>
      <path d="M 18.3125 70.21875 
L 18.3125 54.6875 
L 36.8125 54.6875 
L 36.8125 47.703125 
L 18.3125 47.703125 
L 18.3125 18.015625 
Q 18.3125 11.328125 20.140625 9.421875 
Q 21.96875 7.515625 27.59375 7.515625 
L 36.8125 7.515625 
L 36.8125 0 
L 27.59375 0 
Q 17.1875 0 13.234375 3.875 
Q 9.28125 7.765625 9.28125 18.015625 
L 9.28125 47.703125 
L 2.6875 47.703125 
L 2.6875 54.6875 
L 9.28125 54.6875 
L 9.28125 70.21875 
z
" id="DejaVuSans-116"/>
      <path id="DejaVuSans-32"/>
      <path d="M 19.671875 64.796875 
L 19.671875 8.109375 
L 31.59375 8.109375 
Q 46.6875 8.109375 53.6875 14.9375 
Q 60.6875 21.78125 60.6875 36.53125 
Q 60.6875 51.171875 53.6875 57.984375 
Q 46.6875 64.796875 31.59375 64.796875 
z
M 9.8125 72.90625 
L 30.078125 72.90625 
Q 51.265625 72.90625 61.171875 64.09375 
Q 71.09375 55.28125 71.09375 36.53125 
Q 71.09375 17.671875 61.125 8.828125 
Q 51.171875 0 30.078125 0 
L 9.8125 0 
z
" id="DejaVuSans-68"/>
      <path d="M 34.28125 27.484375 
Q 23.390625 27.484375 19.1875 25 
Q 14.984375 22.515625 14.984375 16.5 
Q 14.984375 11.71875 18.140625 8.90625 
Q 21.296875 6.109375 26.703125 6.109375 
Q 34.1875 6.109375 38.703125 11.40625 
Q 43.21875 16.703125 43.21875 25.484375 
L 43.21875 27.484375 
z
M 52.203125 31.203125 
L 52.203125 0 
L 43.21875 0 
L 43.21875 8.296875 
Q 40.140625 3.328125 35.546875 0.953125 
Q 30.953125 -1.421875 24.3125 -1.421875 
Q 15.921875 -1.421875 10.953125 3.296875 
Q 6 8.015625 6 15.921875 
Q 6 25.140625 12.171875 29.828125 
Q 18.359375 34.515625 30.609375 34.515625 
L 43.21875 34.515625 
L 43.21875 35.40625 
Q 43.21875 41.609375 39.140625 45 
Q 35.0625 48.390625 27.6875 48.390625 
Q 23 48.390625 18.546875 47.265625 
Q 14.109375 46.140625 10.015625 43.890625 
L 10.015625 52.203125 
Q 14.9375 54.109375 19.578125 55.046875 
Q 24.21875 56 28.609375 56 
Q 40.484375 56 46.34375 49.84375 
Q 52.203125 43.703125 52.203125 31.203125 
z
" id="DejaVuSans-97"/>
      <path d="M 44.390625 34.1875 
Q 47.5625 33.109375 50.5625 29.59375 
Q 53.5625 26.078125 56.59375 19.921875 
L 66.609375 0 
L 56 0 
L 46.6875 18.703125 
Q 43.0625 26.03125 39.671875 28.421875 
Q 36.28125 30.8125 30.421875 30.8125 
L 19.671875 30.8125 
L 19.671875 0 
L 9.8125 0 
L 9.8125 72.90625 
L 32.078125 72.90625 
Q 44.578125 72.90625 50.734375 67.671875 
Q 56.890625 62.453125 56.890625 51.90625 
Q 56.890625 45.015625 53.6875 40.46875 
Q 50.484375 35.9375 44.390625 34.1875 
z
M 19.671875 64.796875 
L 19.671875 38.921875 
L 32.078125 38.921875 
Q 39.203125 38.921875 42.84375 42.21875 
Q 46.484375 45.515625 46.484375 51.90625 
Q 46.484375 58.296875 42.84375 61.546875 
Q 39.203125 64.796875 32.078125 64.796875 
z
" id="DejaVuSans-82"/>
      <path d="M 48.78125 52.59375 
L 48.78125 44.1875 
Q 44.96875 46.296875 41.140625 47.34375 
Q 37.3125 48.390625 33.40625 48.390625 
Q 24.65625 48.390625 19.8125 42.84375 
Q 14.984375 37.3125 14.984375 27.296875 
Q 14.984375 17.28125 19.8125 11.734375 
Q 24.65625 6.203125 33.40625 6.203125 
Q 37.3125 6.203125 41.140625 7.25 
Q 44.96875 8.296875 48.78125 10.40625 
L 48.78125 2.09375 
Q 45.015625 0.34375 40.984375 -0.53125 
Q 36.96875 -1.421875 32.421875 -1.421875 
Q 20.0625 -1.421875 12.78125 6.34375 
Q 5.515625 14.109375 5.515625 27.296875 
Q 5.515625 40.671875 12.859375 48.328125 
Q 20.21875 56 33.015625 56 
Q 37.15625 56 41.109375 55.140625 
Q 45.0625 54.296875 48.78125 52.59375 
z
" id="DejaVuSans-99"/>
      <path d="M 30.609375 48.390625 
Q 23.390625 48.390625 19.1875 42.75 
Q 14.984375 37.109375 14.984375 27.296875 
Q 14.984375 17.484375 19.15625 11.84375 
Q 23.34375 6.203125 30.609375 6.203125 
Q 37.796875 6.203125 41.984375 11.859375 
Q 46.1875 17.53125 46.1875 27.296875 
Q 46.1875 37.015625 41.984375 42.703125 
Q 37.796875 48.390625 30.609375 48.390625 
z
M 30.609375 56 
Q 42.328125 56 49.015625 48.375 
Q 55.71875 40.765625 55.71875 27.296875 
Q 55.71875 13.875 49.015625 6.21875 
Q 42.328125 -1.421875 30.609375 -1.421875 
Q 18.84375 -1.421875 12.171875 6.21875 
Q 5.515625 13.875 5.515625 27.296875 
Q 5.515625 40.765625 12.171875 48.375 
Q 18.84375 56 30.609375 56 
z
" id="DejaVuSans-111"/>
      <path d="M 41.109375 46.296875 
Q 39.59375 47.171875 37.8125 47.578125 
Q 36.03125 48 33.890625 48 
Q 26.265625 48 22.1875 43.046875 
Q 18.109375 38.09375 18.109375 28.8125 
L 18.109375 0 
L 9.078125 0 
L 9.078125 54.6875 
L 18.109375 54.6875 
L 18.109375 46.1875 
Q 20.953125 51.171875 25.484375 53.578125 
Q 30.03125 56 36.53125 56 
Q 37.453125 56 38.578125 55.875 
Q 39.703125 55.765625 41.0625 55.515625 
z
" id="DejaVuSans-114"/>
      <path d="M 45.40625 46.390625 
L 45.40625 75.984375 
L 54.390625 75.984375 
L 54.390625 0 
L 45.40625 0 
L 45.40625 8.203125 
Q 42.578125 3.328125 38.25 0.953125 
Q 33.9375 -1.421875 27.875 -1.421875 
Q 17.96875 -1.421875 11.734375 6.484375 
Q 5.515625 14.40625 5.515625 27.296875 
Q 5.515625 40.1875 11.734375 48.09375 
Q 17.96875 56 27.875 56 
Q 33.9375 56 38.25 53.625 
Q 42.578125 51.265625 45.40625 46.390625 
z
M 14.796875 27.296875 
Q 14.796875 17.390625 18.875 11.75 
Q 22.953125 6.109375 30.078125 6.109375 
Q 37.203125 6.109375 41.296875 11.75 
Q 45.40625 17.390625 45.40625 27.296875 
Q 45.40625 37.203125 41.296875 42.84375 
Q 37.203125 48.484375 30.078125 48.484375 
Q 22.953125 48.484375 18.875 42.84375 
Q 14.796875 37.203125 14.796875 27.296875 
z
" id="DejaVuSans-100"/>
     </defs>
     <g transform="translate(1285.019141 1239.133594)scale(0.55 -0.55)">
      <use xlink:href="#DejaVuSans-84"/>
      <use x="44.083984" xlink:href="#DejaVuSans-101"/>
      <use x="105.607422" xlink:href="#DejaVuSans-115"/>
      <use x="157.707031" xlink:href="#DejaVuSans-116"/>
      <use x="196.916016" xlink:href="#DejaVuSans-32"/>
      <use x="228.703125" xlink:href="#DejaVuSans-68"/>
      <use x="305.705078" xlink:href="#DejaVuSans-97"/>
      <use x="366.984375" xlink:href="#DejaVuSans-116"/>
      <use x="406.193359" xlink:href="#DejaVuSans-97"/>
      <use x="467.472656" xlink:href="#DejaVuSans-32"/>
      <use x="499.259766" xlink:href="#DejaVuSans-82"/>
      <use x="564.242188" xlink:href="#DejaVuSans-101"/>
      <use x="625.765625" xlink:href="#DejaVuSans-99"/>
      <use x="680.746094" xlink:href="#DejaVuSans-111"/>
      <use x="741.927734" xlink:href="#DejaVuSans-114"/>
      <use x="781.291016" xlink:href="#DejaVuSans-100"/>
     </g>
    </g>
   </g>
   <g id="matplotlib.axis_2">
    <g id="ytick_1">
     <g id="line2d_12">
      <defs>
       <path d="M 0 0 
L -3.5 0 
" id="ma9abe7a643" style="stroke:#000000;stroke-width:0.8;"/>
      </defs>
      <g>
       <use style="stroke:#000000;stroke-width:0.8;" x="122.329688" xlink:href="#ma9abe7a643" y="1078.040819"/>
      </g>
     </g>
     <g id="text_13">
      <!-- 10 -->
      <g transform="translate(64.429688 1093.237694)scale(0.4 -0.4)">
       <use xlink:href="#DejaVuSans-49"/>
       <use x="63.623047" xlink:href="#DejaVuSans-48"/>
      </g>
     </g>
    </g>
    <g id="ytick_2">
     <g id="line2d_13">
      <g>
       <use style="stroke:#000000;stroke-width:0.8;" x="122.329688" xlink:href="#ma9abe7a643" y="876.333955"/>
      </g>
     </g>
     <g id="text_14">
      <!-- 20 -->
      <g transform="translate(64.429688 891.53083)scale(0.4 -0.4)">
       <use xlink:href="#DejaVuSans-50"/>
       <use x="63.623047" xlink:href="#DejaVuSans-48"/>
      </g>
     </g>
    </g>
    <g id="ytick_3">
     <g id="line2d_14">
      <g>
       <use style="stroke:#000000;stroke-width:0.8;" x="122.329688" xlink:href="#ma9abe7a643" y="674.62709"/>
      </g>
     </g>
     <g id="text_15">
      <!-- 30 -->
      <g transform="translate(64.429688 689.823965)scale(0.4 -0.4)">
       <use xlink:href="#DejaVuSans-51"/>
       <use x="63.623047" xlink:href="#DejaVuSans-48"/>
      </g>
     </g>
    </g>
    <g id="ytick_4">
     <g id="line2d_15">
      <g>
       <use style="stroke:#000000;stroke-width:0.8;" x="122.329688" xlink:href="#ma9abe7a643" y="472.920226"/>
      </g>
     </g>
     <g id="text_16">
      <!-- 40 -->
      <g transform="translate(64.429688 488.117101)scale(0.4 -0.4)">
       <use xlink:href="#DejaVuSans-52"/>
       <use x="63.623047" xlink:href="#DejaVuSans-48"/>
      </g>
     </g>
    </g>
    <g id="ytick_5">
     <g id="line2d_16">
      <g>
       <use style="stroke:#000000;stroke-width:0.8;" x="122.329688" xlink:href="#ma9abe7a643" y="271.213361"/>
      </g>
     </g>
     <g id="text_17">
      <!-- 50 -->
      <g transform="translate(64.429688 286.410236)scale(0.4 -0.4)">
       <use xlink:href="#DejaVuSans-53"/>
       <use x="63.623047" xlink:href="#DejaVuSans-48"/>
      </g>
     </g>
    </g>
    <g id="ytick_6">
     <g id="line2d_17">
      <g>
       <use style="stroke:#000000;stroke-width:0.8;" x="122.329688" xlink:href="#ma9abe7a643" y="69.506496"/>
      </g>
     </g>
     <g id="text_18">
      <!-- 60 -->
      <g transform="translate(64.429688 84.703371)scale(0.4 -0.4)">
       <use xlink:href="#DejaVuSans-54"/>
       <use x="63.623047" xlink:href="#DejaVuSans-48"/>
      </g>
     </g>
    </g>
    <g id="text_19">
     <!-- CPU usage (%)  -->
     <defs>
      <path d="M 64.40625 67.28125 
L 64.40625 56.890625 
Q 59.421875 61.53125 53.78125 63.8125 
Q 48.140625 66.109375 41.796875 66.109375 
Q 29.296875 66.109375 22.65625 58.46875 
Q 16.015625 50.828125 16.015625 36.375 
Q 16.015625 21.96875 22.65625 14.328125 
Q 29.296875 6.6875 41.796875 6.6875 
Q 48.140625 6.6875 53.78125 8.984375 
Q 59.421875 11.28125 64.40625 15.921875 
L 64.40625 5.609375 
Q 59.234375 2.09375 53.4375 0.328125 
Q 47.65625 -1.421875 41.21875 -1.421875 
Q 24.65625 -1.421875 15.125 8.703125 
Q 5.609375 18.84375 5.609375 36.375 
Q 5.609375 53.953125 15.125 64.078125 
Q 24.65625 74.21875 41.21875 74.21875 
Q 47.75 74.21875 53.53125 72.484375 
Q 59.328125 70.75 64.40625 67.28125 
z
" id="DejaVuSans-67"/>
      <path d="M 19.671875 64.796875 
L 19.671875 37.40625 
L 32.078125 37.40625 
Q 38.96875 37.40625 42.71875 40.96875 
Q 46.484375 44.53125 46.484375 51.125 
Q 46.484375 57.671875 42.71875 61.234375 
Q 38.96875 64.796875 32.078125 64.796875 
z
M 9.8125 72.90625 
L 32.078125 72.90625 
Q 44.34375 72.90625 50.609375 67.359375 
Q 56.890625 61.8125 56.890625 51.125 
Q 56.890625 40.328125 50.609375 34.8125 
Q 44.34375 29.296875 32.078125 29.296875 
L 19.671875 29.296875 
L 19.671875 0 
L 9.8125 0 
z
" id="DejaVuSans-80"/>
      <path d="M 8.6875 72.90625 
L 18.609375 72.90625 
L 18.609375 28.609375 
Q 18.609375 16.890625 22.84375 11.734375 
Q 27.09375 6.59375 36.625 6.59375 
Q 46.09375 6.59375 50.34375 11.734375 
Q 54.59375 16.890625 54.59375 28.609375 
L 54.59375 72.90625 
L 64.5 72.90625 
L 64.5 27.390625 
Q 64.5 13.140625 57.4375 5.859375 
Q 50.390625 -1.421875 36.625 -1.421875 
Q 22.796875 -1.421875 15.734375 5.859375 
Q 8.6875 13.140625 8.6875 27.390625 
z
" id="DejaVuSans-85"/>
      <path d="M 8.5 21.578125 
L 8.5 54.6875 
L 17.484375 54.6875 
L 17.484375 21.921875 
Q 17.484375 14.15625 20.5 10.265625 
Q 23.53125 6.390625 29.59375 6.390625 
Q 36.859375 6.390625 41.078125 11.03125 
Q 45.3125 15.671875 45.3125 23.6875 
L 45.3125 54.6875 
L 54.296875 54.6875 
L 54.296875 0 
L 45.3125 0 
L 45.3125 8.40625 
Q 42.046875 3.421875 37.71875 1 
Q 33.40625 -1.421875 27.6875 -1.421875 
Q 18.265625 -1.421875 13.375 4.4375 
Q 8.5 10.296875 8.5 21.578125 
z
M 31.109375 56 
z
" id="DejaVuSans-117"/>
      <path d="M 45.40625 27.984375 
Q 45.40625 37.75 41.375 43.109375 
Q 37.359375 48.484375 30.078125 48.484375 
Q 22.859375 48.484375 18.828125 43.109375 
Q 14.796875 37.75 14.796875 27.984375 
Q 14.796875 18.265625 18.828125 12.890625 
Q 22.859375 7.515625 30.078125 7.515625 
Q 37.359375 7.515625 41.375 12.890625 
Q 45.40625 18.265625 45.40625 27.984375 
z
M 54.390625 6.78125 
Q 54.390625 -7.171875 48.1875 -13.984375 
Q 42 -20.796875 29.203125 -20.796875 
Q 24.46875 -20.796875 20.265625 -20.09375 
Q 16.0625 -19.390625 12.109375 -17.921875 
L 12.109375 -9.1875 
Q 16.0625 -11.328125 19.921875 -12.34375 
Q 23.78125 -13.375 27.78125 -13.375 
Q 36.625 -13.375 41.015625 -8.765625 
Q 45.40625 -4.15625 45.40625 5.171875 
L 45.40625 9.625 
Q 42.625 4.78125 38.28125 2.390625 
Q 33.9375 0 27.875 0 
Q 17.828125 0 11.671875 7.65625 
Q 5.515625 15.328125 5.515625 27.984375 
Q 5.515625 40.671875 11.671875 48.328125 
Q 17.828125 56 27.875 56 
Q 33.9375 56 38.28125 53.609375 
Q 42.625 51.21875 45.40625 46.390625 
L 45.40625 54.6875 
L 54.390625 54.6875 
z
" id="DejaVuSans-103"/>
      <path d="M 31 75.875 
Q 24.46875 64.65625 21.28125 53.65625 
Q 18.109375 42.671875 18.109375 31.390625 
Q 18.109375 20.125 21.3125 9.0625 
Q 24.515625 -2 31 -13.1875 
L 23.1875 -13.1875 
Q 15.875 -1.703125 12.234375 9.375 
Q 8.59375 20.453125 8.59375 31.390625 
Q 8.59375 42.28125 12.203125 53.3125 
Q 15.828125 64.359375 23.1875 75.875 
z
" id="DejaVuSans-40"/>
      <path d="M 72.703125 32.078125 
Q 68.453125 32.078125 66.03125 28.46875 
Q 63.625 24.859375 63.625 18.40625 
Q 63.625 12.0625 66.03125 8.421875 
Q 68.453125 4.78125 72.703125 4.78125 
Q 76.859375 4.78125 79.265625 8.421875 
Q 81.6875 12.0625 81.6875 18.40625 
Q 81.6875 24.8125 79.265625 28.4375 
Q 76.859375 32.078125 72.703125 32.078125 
z
M 72.703125 38.28125 
Q 80.421875 38.28125 84.953125 32.90625 
Q 89.5 27.546875 89.5 18.40625 
Q 89.5 9.28125 84.9375 3.921875 
Q 80.375 -1.421875 72.703125 -1.421875 
Q 64.890625 -1.421875 60.34375 3.921875 
Q 55.8125 9.28125 55.8125 18.40625 
Q 55.8125 27.59375 60.375 32.9375 
Q 64.9375 38.28125 72.703125 38.28125 
z
M 22.3125 68.015625 
Q 18.109375 68.015625 15.6875 64.375 
Q 13.28125 60.75 13.28125 54.390625 
Q 13.28125 47.953125 15.671875 44.328125 
Q 18.0625 40.71875 22.3125 40.71875 
Q 26.5625 40.71875 28.96875 44.328125 
Q 31.390625 47.953125 31.390625 54.390625 
Q 31.390625 60.6875 28.953125 64.34375 
Q 26.515625 68.015625 22.3125 68.015625 
z
M 66.40625 74.21875 
L 74.21875 74.21875 
L 28.609375 -1.421875 
L 20.796875 -1.421875 
z
M 22.3125 74.21875 
Q 30.03125 74.21875 34.609375 68.875 
Q 39.203125 63.53125 39.203125 54.390625 
Q 39.203125 45.171875 34.640625 39.84375 
Q 30.078125 34.515625 22.3125 34.515625 
Q 14.546875 34.515625 10.03125 39.859375 
Q 5.515625 45.21875 5.515625 54.390625 
Q 5.515625 63.484375 10.046875 68.84375 
Q 14.59375 74.21875 22.3125 74.21875 
z
" id="DejaVuSans-37"/>
      <path d="M 8.015625 75.875 
L 15.828125 75.875 
Q 23.140625 64.359375 26.78125 53.3125 
Q 30.421875 42.28125 30.421875 31.390625 
Q 30.421875 20.453125 26.78125 9.375 
Q 23.140625 -1.703125 15.828125 -13.1875 
L 8.015625 -13.1875 
Q 14.5 -2 17.703125 9.0625 
Q 20.90625 20.125 20.90625 31.390625 
Q 20.90625 42.671875 17.703125 53.65625 
Q 14.5 64.65625 8.015625 75.875 
z
" id="DejaVuSans-41"/>
     </defs>
     <g transform="translate(48.991406 816.733594)rotate(-90)scale(0.55 -0.55)">
      <use xlink:href="#DejaVuSans-67"/>
      <use x="69.824219" xlink:href="#DejaVuSans-80"/>
      <use x="130.126953" xlink:href="#DejaVuSans-85"/>
      <use x="203.320312" xlink:href="#DejaVuSans-32"/>
      <use x="235.107422" xlink:href="#DejaVuSans-117"/>
      <use x="298.486328" xlink:href="#DejaVuSans-115"/>
      <use x="350.585938" xlink:href="#DejaVuSans-97"/>
      <use x="411.865234" xlink:href="#DejaVuSans-103"/>
      <use x="475.341797" xlink:href="#DejaVuSans-101"/>
      <use x="536.865234" xlink:href="#DejaVuSans-32"/>
      <use x="568.652344" xlink:href="#DejaVuSans-40"/>
      <use x="607.666016" xlink:href="#DejaVuSans-37"/>
      <use x="702.685547" xlink:href="#DejaVuSans-41"/>
      <use x="741.699219" xlink:href="#DejaVuSans-32"/>
     </g>
    </g>
   </g>
   <g id="line2d_18">
    <path clip-path="url(#p6083ea1ea8)" d="M 136.141569 957.0167 
L 164.044359 553.602971 
L 191.947149 835.992582 
L 219.84994 856.163268 
L 247.75273 835.992582 
L 275.65552 755.309836 
L 303.55831 533.432285 
L 331.461101 331.72542 
L 359.363891 634.285717 
L 387.266681 452.749539 
L 415.169471 372.066793 
L 443.072262 573.773658 
L 470.975052 896.504641 
L 498.877842 714.968463 
L 526.780633 856.163268 
L 554.683423 957.0167 
L 582.586213 634.285717 
L 610.489003 674.62709 
L 638.391794 472.920226 
L 666.294584 775.480522 
L 694.197374 674.62709 
L 722.100165 392.23748 
L 750.002955 553.602971 
L 777.905745 614.115031 
L 805.808535 835.992582 
L 833.711326 452.749539 
L 861.614116 997.358073 
L 889.516906 997.358073 
L 917.419697 735.139149 
L 945.322487 714.968463 
L 973.225277 755.309836 
L 1001.128067 755.309836 
L 1029.030858 795.651209 
L 1056.933648 553.602971 
L 1084.836438 291.384047 
L 1112.739228 351.896107 
L 1140.642019 957.0167 
L 1168.544809 835.992582 
L 1196.447599 957.0167 
L 1224.35039 815.821895 
L 1252.25318 573.773658 
L 1280.15597 412.408166 
L 1308.05876 291.384047 
L 1335.961551 372.066793 
L 1363.864341 896.504641 
L 1391.767131 1098.211506 
L 1419.669922 997.358073 
L 1447.572712 916.675328 
L 1475.475502 230.871988 
L 1503.378292 896.504641 
L 1531.281083 856.163268 
L 1559.183873 493.090912 
L 1587.086663 593.944344 
L 1614.989453 876.333955 
L 1642.892244 936.846014 
L 1670.795034 856.163268 
L 1698.697824 553.602971 
L 1726.600615 755.309836 
L 1754.503405 533.432285 
L 1782.406195 331.72542 
L 1810.308985 573.773658 
L 1838.211776 1037.699446 
L 1866.114566 472.920226 
L 1894.017356 1017.52876 
L 1921.920147 331.72542 
L 1949.822937 674.62709 
L 1977.725727 493.090912 
L 2005.628517 997.358073 
L 2033.531308 1017.52876 
L 2061.434098 896.504641 
L 2089.336888 593.944344 
L 2117.239678 372.066793 
L 2145.142469 674.62709 
L 2173.045259 856.163268 
L 2200.948049 412.408166 
L 2228.85084 493.090912 
L 2256.75363 331.72542 
L 2284.65642 311.554734 
L 2312.55921 916.675328 
L 2340.462001 1017.52876 
L 2368.364791 674.62709 
L 2396.267581 1057.870133 
L 2424.170372 634.285717 
L 2452.073162 1037.699446 
L 2479.975952 856.163268 
L 2507.878742 876.333955 
L 2535.781533 1057.870133 
L 2563.684323 654.456404 
L 2591.587113 856.163268 
L 2619.489904 553.602971 
L 2647.392694 795.651209 
L 2675.295484 674.62709 
L 2703.198274 856.163268 
L 2731.101065 835.992582 
L 2759.003855 533.432285 
L 2786.906645 109.847869 
L 2814.809435 472.920226 
L 2842.712226 795.651209 
L 2870.615016 674.62709 
L 2898.517806 634.285717 
" style="fill:none;stroke:#0000ff;stroke-linecap:square;stroke-width:1.5;"/>
   </g>
   <g id="line2d_19">
    <path clip-path="url(#p6083ea1ea8)" d="M 136.141569 825.302118 
L 164.044359 802.989305 
L 191.947149 667.781159 
L 219.84994 711.08964 
L 247.75273 789.343835 
L 275.65552 771.763065 
L 303.55831 690.991568 
L 331.461101 538.372086 
L 359.363891 466.794388 
L 387.266681 517.198916 
L 415.169471 488.201538 
L 443.072262 459.294927 
L 470.975052 567.234321 
L 498.877842 722.401361 
L 526.780633 733.226968 
L 554.683423 773.364617 
L 582.586213 817.711889 
L 610.489003 680.773098 
L 638.391794 594.650318 
L 666.294584 563.589478 
L 694.197374 635.023964 
L 722.100165 613.604712 
L 750.002955 499.349876 
L 777.905745 519.901788 
L 805.808535 606.072978 
L 833.711326 660.737555 
L 861.614116 619.635748 
L 889.516906 782.017842 
L 917.419697 896.432027 
L 945.322487 746.58198 
L 973.225277 676.238728 
L 1001.128067 690.370311 
L 1029.030858 705.944098 
L 1056.933648 699.497546 
L 1084.836438 552.40685 
L 1112.739228 413.146413 
L 1140.642019 487.275703 
L 1168.544809 726.381037 
L 1196.447599 834.261937 
L 1224.35039 846.267529 
L 1252.25318 765.364923 
L 1280.15597 583.709738 
L 1308.05876 451.424325 
L 1335.961551 396.1869 
L 1363.864341 484.943972 
L 1391.767131 739.512154 
L 1419.669922 971.888548 
L 1447.572712 963.233306 
L 1475.475502 781.2211 
L 1503.378292 532.982479 
L 1531.281083 672.376041 
L 1559.183873 756.889201 
L 1587.086663 582.826262 
L 1614.989453 596.034027 
L 1642.892244 754.922559 
L 1670.795034 849.638051 
L 1698.697824 776.458801 
L 1726.600615 633.785484 
L 1754.503405 626.362672 
L 1782.406195 539.721505 
L 1810.308985 458.24 
L 1838.211776 583.308341 
L 1866.114566 762.062982 
L 1894.017356 676.853934 
L 1921.920147 703.757595 
L 1949.822937 559.416163 
L 1977.725727 540.469837 
L 2005.628517 606.38159 
L 2033.531308 800.417542 
L 2061.434098 935.972623 
L 2089.336888 826.223918 
L 2117.239678 602.883993 
L 2145.142469 497.405422 
L 2173.045259 601.520454 
L 2200.948049 682.235473 
L 2228.85084 532.869523 
L 2256.75363 459.954508 
L 2284.65642 413.152464 
L 2312.55921 474.529846 
L 2340.462001 716.721296 
L 2368.364791 875.111611 
L 2396.267581 773.802321 
L 2424.170372 819.956886 
L 2452.073162 760.630863 
L 2479.975952 830.492036 
L 2507.878742 848.77878 
L 2535.781533 834.768221 
L 2563.684323 881.336285 
L 2591.587113 742.894778 
L 2619.489904 695.473495 
L 2647.392694 637.178194 
L 2675.295484 660.81017 
L 2703.198274 687.159138 
L 2731.101065 753.53885 
L 2759.003855 743.762118 
L 2786.906645 525.523359 
L 2814.809435 369.666482 
L 2842.712226 479.645132 
L 2870.615016 652.7661 
L 2898.517806 660.993723 
" style="fill:none;stroke:#008000;stroke-linecap:square;stroke-width:1.5;"/>
   </g>
   <g id="line2d_20">
    <path clip-path="url(#p6083ea1ea8)" d="M 136.141569 833.846421 
L 164.044359 776.563688 
L 191.947149 665.453462 
L 219.84994 722.917731 
L 247.75273 790.005434 
L 275.65552 764.925202 
L 303.55831 665.453462 
L 331.461101 497.996423 
L 359.363891 460.287325 
L 387.266681 504.412718 
L 415.169471 455.668237 
L 443.072262 450.631617 
L 470.975052 592.917656 
L 498.877842 721.874906 
L 526.780633 735.81285 
L 554.683423 790.628708 
L 582.586213 801.060987 
L 610.489003 664.969365 
L 638.391794 572.740919 
L 666.294584 566.042234 
L 694.197374 637.791382 
L 722.100165 579.433552 
L 750.002955 480.577018 
L 777.905745 520.083325 
L 805.808535 620.581753 
L 833.711326 638.636534 
L 861.614116 635.667409 
L 889.516906 813.748349 
L 917.419697 887.990594 
L 945.322487 735.455829 
L 973.225277 677.836246 
L 1001.128067 693.091336 
L 1029.030858 710.974667 
L 1056.933648 676.357735 
L 1084.836438 510.326764 
L 1112.739228 389.322816 
L 1140.642019 526.695276 
L 1168.544809 736.516807 
L 1196.447599 841.73921 
L 1224.35039 841.013066 
L 1252.25318 738.826351 
L 1280.15597 551.162318 
L 1308.05876 419.546572 
L 1335.961551 377.831575 
L 1363.864341 517.91901 
L 1391.767131 777.019546 
L 1419.669922 980.059693 
L 1447.572712 963.632686 
L 1475.475502 722.31261 
L 1503.378292 541.38357 
L 1531.281083 695.094286 
L 1559.183873 724.932782 
L 1587.086663 565.646888 
L 1614.989453 617.836522 
L 1642.892244 772.13824 
L 1670.795034 850.087857 
L 1698.697824 749.603549 
L 1726.600615 630.695335 
L 1754.503405 612.571973 
L 1782.406195 502.623578 
L 1810.308985 451.587708 
L 1838.211776 626.820546 
L 1866.114566 735.185542 
L 1894.017356 690.50142 
L 1921.920147 668.894581 
L 1949.822937 541.968519 
L 1977.725727 534.801875 
L 2005.628517 632.692233 
L 2033.531308 828.442694 
L 2061.434098 939.20195 
L 2089.336888 802.890468 
L 2117.239678 564.230906 
L 2145.142469 497.074623 
L 2173.045259 627.897661 
L 2200.948049 654.05299 
L 2228.85084 505.895264 
L 2256.75363 437.355271 
L 2284.65642 383.170756 
L 2312.55921 504.275558 
L 2340.462001 758.139783 
L 2368.364791 862.426266 
L 2396.267581 793.813659 
L 2424.170372 810.002652 
L 2452.073162 777.416908 
L 2479.975952 842.92323 
L 2507.878742 853.141699 
L 2535.781533 860.947755 
L 2563.684323 869.139071 
L 2591.587113 744.153429 
L 2619.489904 684.522829 
L 2647.392694 639.749956 
L 2675.295484 666.022275 
L 2703.198274 698.908562 
L 2731.101065 757.637533 
L 2759.003855 716.225097 
L 2786.906645 468.373753 
L 2814.809435 361.497354 
L 2842.712226 514.20357 
L 2870.615016 652.989995 
L 2898.517806 649.28464 
" style="fill:none;stroke:#000000;stroke-linecap:square;stroke-width:1.5;"/>
   </g>
   <g id="line2d_21">
    <path clip-path="url(#p6083ea1ea8)" d="M 136.141569 849.01276 
L 164.044359 762.355457 
L 191.947149 687.445561 
L 219.84994 730.199348 
L 247.75273 797.361683 
L 275.65552 768.644677 
L 303.55831 659.222737 
L 331.461101 485.643895 
L 359.363891 466.713705 
L 387.266681 489.078962 
L 415.169471 445.342863 
L 443.072262 451.24884 
L 470.975052 605.705872 
L 498.877842 719.327348 
L 526.780633 754.583691 
L 554.683423 805.756723 
L 582.586213 793.571611 
L 610.489003 680.256729 
L 638.391794 563.51283 
L 666.294584 583.479792 
L 694.197374 634.013413 
L 722.100165 570.895301 
L 750.002955 488.834897 
L 777.905745 517.243292 
L 805.808535 633.872218 
L 833.711326 623.681987 
L 861.614116 678.231592 
L 889.516906 824.34401 
L 917.419697 884.250949 
L 945.322487 752.693698 
L 973.225277 690.816083 
L 1001.128067 703.767681 
L 1029.030858 725.713388 
L 1056.933648 670.01002 
L 1084.836438 493.530633 
L 1112.739228 385.425839 
L 1140.642019 564.130053 
L 1168.544809 756.263909 
L 1196.447599 854.567767 
L 1224.35039 843.671562 
L 1252.25318 729.759627 
L 1280.15597 540.937797 
L 1308.05876 406.536479 
L 1335.961551 375.203335 
L 1363.864341 546.767126 
L 1391.767131 807.017391 
L 1419.669922 987.302986 
L 1447.572712 965.421826 
L 1475.475502 689.061233 
L 1503.378292 573.29763 
L 1531.281083 711.121913 
L 1559.183873 711.487003 
L 1587.086663 570.776294 
L 1614.989453 633.603948 
L 1642.892244 786.183089 
L 1670.795034 855.820367 
L 1698.697824 740.518672 
L 1726.600615 644.820867 
L 1754.503405 603.852185 
L 1782.406195 489.98866 
L 1810.308985 456.047446 
L 1838.211776 651.352135 
L 1866.114566 718.030373 
L 1894.017356 732.172041 
L 1921.920147 643.959578 
L 1949.822937 569.213066 
L 1977.725727 523.020177 
L 2005.628517 660.77588 
L 2033.531308 843.863184 
L 2061.434098 943.357112 
L 2089.336888 796.786818 
L 2117.239678 559.761082 
L 2145.142469 508.763535 
L 2173.045259 636.913958 
L 2200.948049 636.913958 
L 2228.85084 516.353765 
L 2256.75363 420.821359 
L 2284.65642 373.256864 
L 2312.55921 529.317465 
L 2340.462001 771.198286 
L 2368.364791 855.057915 
L 2396.267581 834.126793 
L 2424.170372 799.73779 
L 2452.073162 821.495909 
L 2479.975952 846.560004 
L 2507.878742 870.000359 
L 2535.781533 886.040089 
L 2563.684323 858.503068 
L 2591.587113 777.840493 
L 2619.489904 676.964873 
L 2647.392694 668.940974 
L 2675.295484 665.380847 
L 2703.198274 723.232393 
L 2731.101065 770.823111 
L 2759.003855 707.265278 
L 2786.906645 442.966756 
L 2814.809435 373.597748 
L 2842.712226 547.116079 
L 2870.615016 660.487439 
L 2898.517806 651.442903 
" style="fill:none;stroke:#ff0000;stroke-linecap:square;stroke-width:1.5;"/>
   </g>
   <g id="patch_3">
    <path d="M 122.329688 1147.629688 
L 122.329688 60.429688 
" style="fill:none;stroke:#000000;stroke-linecap:square;stroke-linejoin:miter;stroke-width:0.8;"/>
   </g>
   <g id="patch_4">
    <path d="M 2912.329688 1147.629688 
L 2912.329688 60.429688 
" style="fill:none;stroke:#000000;stroke-linecap:square;stroke-linejoin:miter;stroke-width:0.8;"/>
   </g>
   <g id="patch_5">
    <path d="M 122.329688 1147.629688 
L 2912.329688 1147.629688 
" style="fill:none;stroke:#000000;stroke-linecap:square;stroke-linejoin:miter;stroke-width:0.8;"/>
   </g>
   <g id="patch_6">
    <path d="M 122.329688 60.429688 
L 2912.329688 60.429688 
" style="fill:none;stroke:#000000;stroke-linecap:square;stroke-linejoin:miter;stroke-width:0.8;"/>
   </g>
   <g id="text_20">
    <!-- NASA dataset (t+3) -->
    <defs>
     <path d="M 9.8125 72.90625 
L 23.09375 72.90625 
L 55.421875 11.921875 
L 55.421875 72.90625 
L 64.984375 72.90625 
L 64.984375 0 
L 51.703125 0 
L 19.390625 60.984375 
L 19.390625 0 
L 9.8125 0 
z
" id="DejaVuSans-78"/>
     <path d="M 34.1875 63.1875 
L 20.796875 26.90625 
L 47.609375 26.90625 
z
M 28.609375 72.90625 
L 39.796875 72.90625 
L 67.578125 0 
L 57.328125 0 
L 50.6875 18.703125 
L 17.828125 18.703125 
L 11.1875 0 
L 0.78125 0 
z
" id="DejaVuSans-65"/>
     <path d="M 53.515625 70.515625 
L 53.515625 60.890625 
Q 47.90625 63.578125 42.921875 64.890625 
Q 37.9375 66.21875 33.296875 66.21875 
Q 25.25 66.21875 20.875 63.09375 
Q 16.5 59.96875 16.5 54.203125 
Q 16.5 49.359375 19.40625 46.890625 
Q 22.3125 44.4375 30.421875 42.921875 
L 36.375 41.703125 
Q 47.40625 39.59375 52.65625 34.296875 
Q 57.90625 29 57.90625 20.125 
Q 57.90625 9.515625 50.796875 4.046875 
Q 43.703125 -1.421875 29.984375 -1.421875 
Q 24.8125 -1.421875 18.96875 -0.25 
Q 13.140625 0.921875 6.890625 3.21875 
L 6.890625 13.375 
Q 12.890625 10.015625 18.65625 8.296875 
Q 24.421875 6.59375 29.984375 6.59375 
Q 38.421875 6.59375 43.015625 9.90625 
Q 47.609375 13.234375 47.609375 19.390625 
Q 47.609375 24.75 44.3125 27.78125 
Q 41.015625 30.8125 33.5 32.328125 
L 27.484375 33.5 
Q 16.453125 35.6875 11.515625 40.375 
Q 6.59375 45.0625 6.59375 53.421875 
Q 6.59375 63.09375 13.40625 68.65625 
Q 20.21875 74.21875 32.171875 74.21875 
Q 37.3125 74.21875 42.625 73.28125 
Q 47.953125 72.359375 53.515625 70.515625 
z
" id="DejaVuSans-83"/>
     <path d="M 46 62.703125 
L 46 35.5 
L 73.1875 35.5 
L 73.1875 27.203125 
L 46 27.203125 
L 46 0 
L 37.796875 0 
L 37.796875 27.203125 
L 10.59375 27.203125 
L 10.59375 35.5 
L 37.796875 35.5 
L 37.796875 62.703125 
z
" id="DejaVuSans-43"/>
    </defs>
    <g transform="translate(1246.927344 48.991406)scale(0.55 -0.55)">
     <use xlink:href="#DejaVuSans-78"/>
     <use x="74.804688" xlink:href="#DejaVuSans-65"/>
     <use x="143.212891" xlink:href="#DejaVuSans-83"/>
     <use x="208.564453" xlink:href="#DejaVuSans-65"/>
     <use x="276.972656" xlink:href="#DejaVuSans-32"/>
     <use x="308.759766" xlink:href="#DejaVuSans-100"/>
     <use x="372.236328" xlink:href="#DejaVuSans-97"/>
     <use x="433.515625" xlink:href="#DejaVuSans-116"/>
     <use x="472.724609" xlink:href="#DejaVuSans-97"/>
     <use x="534.003906" xlink:href="#DejaVuSans-115"/>
     <use x="586.103516" xlink:href="#DejaVuSans-101"/>
     <use x="647.626953" xlink:href="#DejaVuSans-116"/>
     <use x="686.835938" xlink:href="#DejaVuSans-32"/>
     <use x="718.623047" xlink:href="#DejaVuSans-40"/>
     <use x="757.636719" xlink:href="#DejaVuSans-116"/>
     <use x="796.845703" xlink:href="#DejaVuSans-43"/>
     <use x="880.634766" xlink:href="#DejaVuSans-51"/>
     <use x="944.257812" xlink:href="#DejaVuSans-41"/>
    </g>
   </g>
   <g id="legend_1">
    <g id="patch_7">
     <path d="M 1318.134375 173.820312 
L 2877.329688 173.820312 
Q 2887.329688 173.820312 2887.329688 163.820312 
L 2887.329688 95.429688 
Q 2887.329688 85.429688 2877.329688 85.429688 
L 1318.134375 85.429688 
Q 1308.134375 85.429688 1308.134375 95.429688 
L 1308.134375 163.820312 
Q 1308.134375 173.820312 1318.134375 173.820312 
z
" style="fill:#ffffff;opacity:0.8;stroke:#cccccc;stroke-linejoin:miter;"/>
    </g>
    <g id="line2d_22">
     <path d="M 1328.134375 125.921875 
L 1428.134375 125.921875 
" style="fill:none;stroke:#0000ff;stroke-linecap:square;stroke-width:6;"/>
    </g>
    <g id="line2d_23"/>
    <g id="text_21">
     <!-- Real -->
     <defs>
      <path d="M 9.421875 75.984375 
L 18.40625 75.984375 
L 18.40625 0 
L 9.421875 0 
z
" id="DejaVuSans-108"/>
     </defs>
     <g transform="translate(1468.134375 143.421875)scale(0.5 -0.5)">
      <use xlink:href="#DejaVuSans-82"/>
      <use x="64.982422" xlink:href="#DejaVuSans-101"/>
      <use x="126.505859" xlink:href="#DejaVuSans-97"/>
      <use x="187.785156" xlink:href="#DejaVuSans-108"/>
     </g>
    </g>
    <g id="line2d_24">
     <path d="M 1675.923438 125.921875 
L 1775.923438 125.921875 
" style="fill:none;stroke:#008000;stroke-linecap:square;stroke-width:6;"/>
    </g>
    <g id="line2d_25"/>
    <g id="text_22">
     <!-- LSTM -->
     <defs>
      <path d="M 9.8125 72.90625 
L 19.671875 72.90625 
L 19.671875 8.296875 
L 55.171875 8.296875 
L 55.171875 0 
L 9.8125 0 
z
" id="DejaVuSans-76"/>
      <path d="M 9.8125 72.90625 
L 24.515625 72.90625 
L 43.109375 23.296875 
L 61.8125 72.90625 
L 76.515625 72.90625 
L 76.515625 0 
L 66.890625 0 
L 66.890625 64.015625 
L 48.09375 14.015625 
L 38.1875 14.015625 
L 19.390625 64.015625 
L 19.390625 0 
L 9.8125 0 
z
" id="DejaVuSans-77"/>
     </defs>
     <g transform="translate(1815.923438 143.421875)scale(0.5 -0.5)">
      <use xlink:href="#DejaVuSans-76"/>
      <use x="55.712891" xlink:href="#DejaVuSans-83"/>
      <use x="119.189453" xlink:href="#DejaVuSans-84"/>
      <use x="180.273438" xlink:href="#DejaVuSans-77"/>
     </g>
    </g>
    <g id="line2d_26">
     <path d="M 2049.204688 125.921875 
L 2149.204688 125.921875 
" style="fill:none;stroke:#000000;stroke-linecap:square;stroke-width:6;"/>
    </g>
    <g id="line2d_27"/>
    <g id="text_23">
     <!-- GRUED -->
     <defs>
      <path d="M 59.515625 10.40625 
L 59.515625 29.984375 
L 43.40625 29.984375 
L 43.40625 38.09375 
L 69.28125 38.09375 
L 69.28125 6.78125 
Q 63.578125 2.734375 56.6875 0.65625 
Q 49.8125 -1.421875 42 -1.421875 
Q 24.90625 -1.421875 15.25 8.5625 
Q 5.609375 18.5625 5.609375 36.375 
Q 5.609375 54.25 15.25 64.234375 
Q 24.90625 74.21875 42 74.21875 
Q 49.125 74.21875 55.546875 72.453125 
Q 61.96875 70.703125 67.390625 67.28125 
L 67.390625 56.78125 
Q 61.921875 61.421875 55.765625 63.765625 
Q 49.609375 66.109375 42.828125 66.109375 
Q 29.4375 66.109375 22.71875 58.640625 
Q 16.015625 51.171875 16.015625 36.375 
Q 16.015625 21.625 22.71875 14.15625 
Q 29.4375 6.6875 42.828125 6.6875 
Q 48.046875 6.6875 52.140625 7.59375 
Q 56.25 8.5 59.515625 10.40625 
z
" id="DejaVuSans-71"/>
      <path d="M 9.8125 72.90625 
L 55.90625 72.90625 
L 55.90625 64.59375 
L 19.671875 64.59375 
L 19.671875 43.015625 
L 54.390625 43.015625 
L 54.390625 34.71875 
L 19.671875 34.71875 
L 19.671875 8.296875 
L 56.78125 8.296875 
L 56.78125 0 
L 9.8125 0 
z
" id="DejaVuSans-69"/>
     </defs>
     <g transform="translate(2189.204688 143.421875)scale(0.5 -0.5)">
      <use xlink:href="#DejaVuSans-71"/>
      <use x="77.490234" xlink:href="#DejaVuSans-82"/>
      <use x="146.972656" xlink:href="#DejaVuSans-85"/>
      <use x="220.166016" xlink:href="#DejaVuSans-69"/>
      <use x="283.349609" xlink:href="#DejaVuSans-68"/>
     </g>
    </g>
    <g id="line2d_28">
     <path d="M 2469.376563 125.921875 
L 2569.376563 125.921875 
" style="fill:none;stroke:#ff0000;stroke-linecap:square;stroke-width:6;"/>
    </g>
    <g id="line2d_29"/>
    <g id="text_24">
     <!-- K-AGRUED -->
     <defs>
      <path d="M 9.8125 72.90625 
L 19.671875 72.90625 
L 19.671875 42.09375 
L 52.390625 72.90625 
L 65.09375 72.90625 
L 28.90625 38.921875 
L 67.671875 0 
L 54.6875 0 
L 19.671875 35.109375 
L 19.671875 0 
L 9.8125 0 
z
" id="DejaVuSans-75"/>
      <path d="M 4.890625 31.390625 
L 31.203125 31.390625 
L 31.203125 23.390625 
L 4.890625 23.390625 
z
" id="DejaVuSans-45"/>
     </defs>
     <g transform="translate(2609.376563 143.421875)scale(0.5 -0.5)">
      <use xlink:href="#DejaVuSans-75"/>
      <use x="55.076172" xlink:href="#DejaVuSans-45"/>
      <use x="88.910156" xlink:href="#DejaVuSans-65"/>
      <use x="155.568359" xlink:href="#DejaVuSans-71"/>
      <use x="233.058594" xlink:href="#DejaVuSans-82"/>
      <use x="302.541016" xlink:href="#DejaVuSans-85"/>
      <use x="375.734375" xlink:href="#DejaVuSans-69"/>
      <use x="438.917969" xlink:href="#DejaVuSans-68"/>
     </g>
    </g>
   </g>
  </g>
 </g>
 <defs>
  <clipPath id="p6083ea1ea8">
   <rect height="1087.2" width="2790" x="122.329688" y="60.429688"/>
  </clipPath>
 </defs>
</svg>
