<?xml version="1.0" encoding="utf-8" standalone="no"?>
<!DOCTYPE svg PUBLIC "-//W3C//DTD SVG 1.1//EN"
  "http://www.w3.org/Graphics/SVG/1.1/DTD/svg11.dtd">
<!-- Created with matplotlib (https://matplotlib.org/) -->
<svg height="327.79249pt" version="1.1" viewBox="0 0 823.51407 327.79249" width="823.51407pt" xmlns="http://www.w3.org/2000/svg" xmlns:xlink="http://www.w3.org/1999/xlink">
 <defs>
  <style type="text/css">
*{stroke-linecap:butt;stroke-linejoin:round;}
  </style>
 </defs>
 <g id="figure_1">
  <g id="patch_1">
   <path d="M 0 327.79249 
L 823.51407 327.79249 
L 823.51407 0 
L 0 0 
z
" style="fill:#ffffff;"/>
  </g>
  <g id="axes_1">
   <g id="patch_2">
    <path d="M 63.01407 231.917812 
L 816.31407 231.917812 
L 816.31407 23.837812 
L 63.01407 23.837812 
z
" style="fill:#ffffff;"/>
   </g>
   <g id="matplotlib.axis_1">
    <g id="xtick_1">
     <g id="line2d_1">
      <defs>
       <path d="M 0 0 
L 0 3.5 
" id="m519661bcee" style="stroke:#000000;stroke-width:0.8;"/>
      </defs>
      <g>
       <use style="stroke:#000000;stroke-width:0.8;" x="106.654532" xlink:href="#m519661bcee" y="231.917812"/>
      </g>
     </g>
     <g id="text_1">
      <!-- 1998-07-14 01:56 -->
      <defs>
       <path d="M 12.40625 8.296875 
L 28.515625 8.296875 
L 28.515625 63.921875 
L 10.984375 60.40625 
L 10.984375 69.390625 
L 28.421875 72.90625 
L 38.28125 72.90625 
L 38.28125 8.296875 
L 54.390625 8.296875 
L 54.390625 0 
L 12.40625 0 
z
" id="DejaVuSans-49"/>
       <path d="M 10.984375 1.515625 
L 10.984375 10.5 
Q 14.703125 8.734375 18.5 7.8125 
Q 22.3125 6.890625 25.984375 6.890625 
Q 35.75 6.890625 40.890625 13.453125 
Q 46.046875 20.015625 46.78125 33.40625 
Q 43.953125 29.203125 39.59375 26.953125 
Q 35.25 24.703125 29.984375 24.703125 
Q 19.046875 24.703125 12.671875 31.3125 
Q 6.296875 37.9375 6.296875 49.421875 
Q 6.296875 60.640625 12.9375 67.421875 
Q 19.578125 74.21875 30.609375 74.21875 
Q 43.265625 74.21875 49.921875 64.515625 
Q 56.59375 54.828125 56.59375 36.375 
Q 56.59375 19.140625 48.40625 8.859375 
Q 40.234375 -1.421875 26.421875 -1.421875 
Q 22.703125 -1.421875 18.890625 -0.6875 
Q 15.09375 0.046875 10.984375 1.515625 
z
M 30.609375 32.421875 
Q 37.25 32.421875 41.125 36.953125 
Q 45.015625 41.5 45.015625 49.421875 
Q 45.015625 57.28125 41.125 61.84375 
Q 37.25 66.40625 30.609375 66.40625 
Q 23.96875 66.40625 20.09375 61.84375 
Q 16.21875 57.28125 16.21875 49.421875 
Q 16.21875 41.5 20.09375 36.953125 
Q 23.96875 32.421875 30.609375 32.421875 
z
" id="DejaVuSans-57"/>
       <path d="M 31.78125 34.625 
Q 24.75 34.625 20.71875 30.859375 
Q 16.703125 27.09375 16.703125 20.515625 
Q 16.703125 13.921875 20.71875 10.15625 
Q 24.75 6.390625 31.78125 6.390625 
Q 38.8125 6.390625 42.859375 10.171875 
Q 46.921875 13.96875 46.921875 20.515625 
Q 46.921875 27.09375 42.890625 30.859375 
Q 38.875 34.625 31.78125 34.625 
z
M 21.921875 38.8125 
Q 15.578125 40.375 12.03125 44.71875 
Q 8.5 49.078125 8.5 55.328125 
Q 8.5 64.0625 14.71875 69.140625 
Q 20.953125 74.21875 31.78125 74.21875 
Q 42.671875 74.21875 48.875 69.140625 
Q 55.078125 64.0625 55.078125 55.328125 
Q 55.078125 49.078125 51.53125 44.71875 
Q 48 40.375 41.703125 38.8125 
Q 48.828125 37.15625 52.796875 32.3125 
Q 56.78125 27.484375 56.78125 20.515625 
Q 56.78125 9.90625 50.3125 4.234375 
Q 43.84375 -1.421875 31.78125 -1.421875 
Q 19.734375 -1.421875 13.25 4.234375 
Q 6.78125 9.90625 6.78125 20.515625 
Q 6.78125 27.484375 10.78125 32.3125 
Q 14.796875 37.15625 21.921875 38.8125 
z
M 18.3125 54.390625 
Q 18.3125 48.734375 21.84375 45.5625 
Q 25.390625 42.390625 31.78125 42.390625 
Q 38.140625 42.390625 41.71875 45.5625 
Q 45.3125 48.734375 45.3125 54.390625 
Q 45.3125 60.0625 41.71875 63.234375 
Q 38.140625 66.40625 31.78125 66.40625 
Q 25.390625 66.40625 21.84375 63.234375 
Q 18.3125 60.0625 18.3125 54.390625 
z
" id="DejaVuSans-56"/>
       <path d="M 4.890625 31.390625 
L 31.203125 31.390625 
L 31.203125 23.390625 
L 4.890625 23.390625 
z
" id="DejaVuSans-45"/>
       <path d="M 31.78125 66.40625 
Q 24.171875 66.40625 20.328125 58.90625 
Q 16.5 51.421875 16.5 36.375 
Q 16.5 21.390625 20.328125 13.890625 
Q 24.171875 6.390625 31.78125 6.390625 
Q 39.453125 6.390625 43.28125 13.890625 
Q 47.125 21.390625 47.125 36.375 
Q 47.125 51.421875 43.28125 58.90625 
Q 39.453125 66.40625 31.78125 66.40625 
z
M 31.78125 74.21875 
Q 44.046875 74.21875 50.515625 64.515625 
Q 56.984375 54.828125 56.984375 36.375 
Q 56.984375 17.96875 50.515625 8.265625 
Q 44.046875 -1.421875 31.78125 -1.421875 
Q 19.53125 -1.421875 13.0625 8.265625 
Q 6.59375 17.96875 6.59375 36.375 
Q 6.59375 54.828125 13.0625 64.515625 
Q 19.53125 74.21875 31.78125 74.21875 
z
" id="DejaVuSans-48"/>
       <path d="M 8.203125 72.90625 
L 55.078125 72.90625 
L 55.078125 68.703125 
L 28.609375 0 
L 18.3125 0 
L 43.21875 64.59375 
L 8.203125 64.59375 
z
" id="DejaVuSans-55"/>
       <path d="M 37.796875 64.3125 
L 12.890625 25.390625 
L 37.796875 25.390625 
z
M 35.203125 72.90625 
L 47.609375 72.90625 
L 47.609375 25.390625 
L 58.015625 25.390625 
L 58.015625 17.1875 
L 47.609375 17.1875 
L 47.609375 0 
L 37.796875 0 
L 37.796875 17.1875 
L 4.890625 17.1875 
L 4.890625 26.703125 
z
" id="DejaVuSans-52"/>
       <path id="DejaVuSans-32"/>
       <path d="M 11.71875 12.40625 
L 22.015625 12.40625 
L 22.015625 0 
L 11.71875 0 
z
M 11.71875 51.703125 
L 22.015625 51.703125 
L 22.015625 39.3125 
L 11.71875 39.3125 
z
" id="DejaVuSans-58"/>
       <path d="M 10.796875 72.90625 
L 49.515625 72.90625 
L 49.515625 64.59375 
L 19.828125 64.59375 
L 19.828125 46.734375 
Q 21.96875 47.46875 24.109375 47.828125 
Q 26.265625 48.1875 28.421875 48.1875 
Q 40.625 48.1875 47.75 41.5 
Q 54.890625 34.8125 54.890625 23.390625 
Q 54.890625 11.625 47.5625 5.09375 
Q 40.234375 -1.421875 26.90625 -1.421875 
Q 22.3125 -1.421875 17.546875 -0.640625 
Q 12.796875 0.140625 7.71875 1.703125 
L 7.71875 11.625 
Q 12.109375 9.234375 16.796875 8.0625 
Q 21.484375 6.890625 26.703125 6.890625 
Q 35.15625 6.890625 40.078125 11.328125 
Q 45.015625 15.765625 45.015625 23.390625 
Q 45.015625 31 40.078125 35.4375 
Q 35.15625 39.890625 26.703125 39.890625 
Q 22.75 39.890625 18.8125 39.015625 
Q 14.890625 38.140625 10.796875 36.28125 
z
" id="DejaVuSans-53"/>
       <path d="M 33.015625 40.375 
Q 26.375 40.375 22.484375 35.828125 
Q 18.609375 31.296875 18.609375 23.390625 
Q 18.609375 15.53125 22.484375 10.953125 
Q 26.375 6.390625 33.015625 6.390625 
Q 39.65625 6.390625 43.53125 10.953125 
Q 47.40625 15.53125 47.40625 23.390625 
Q 47.40625 31.296875 43.53125 35.828125 
Q 39.65625 40.375 33.015625 40.375 
z
M 52.59375 71.296875 
L 52.59375 62.3125 
Q 48.875 64.0625 45.09375 64.984375 
Q 41.3125 65.921875 37.59375 65.921875 
Q 27.828125 65.921875 22.671875 59.328125 
Q 17.53125 52.734375 16.796875 39.40625 
Q 19.671875 43.65625 24.015625 45.921875 
Q 28.375 48.1875 33.59375 48.1875 
Q 44.578125 48.1875 50.953125 41.515625 
Q 57.328125 34.859375 57.328125 23.390625 
Q 57.328125 12.15625 50.6875 5.359375 
Q 44.046875 -1.421875 33.015625 -1.421875 
Q 20.359375 -1.421875 13.671875 8.265625 
Q 6.984375 17.96875 6.984375 36.375 
Q 6.984375 53.65625 15.1875 63.9375 
Q 23.390625 74.21875 37.203125 74.21875 
Q 40.921875 74.21875 44.703125 73.484375 
Q 48.484375 72.75 52.59375 71.296875 
z
" id="DejaVuSans-54"/>
      </defs>
      <g transform="translate(11.759062 300.88184)rotate(-30)scale(0.12 -0.12)">
       <use xlink:href="#DejaVuSans-49"/>
       <use x="63.623047" xlink:href="#DejaVuSans-57"/>
       <use x="127.246094" xlink:href="#DejaVuSans-57"/>
       <use x="190.869141" xlink:href="#DejaVuSans-56"/>
       <use x="254.492188" xlink:href="#DejaVuSans-45"/>
       <use x="290.576172" xlink:href="#DejaVuSans-48"/>
       <use x="354.199219" xlink:href="#DejaVuSans-55"/>
       <use x="417.822266" xlink:href="#DejaVuSans-45"/>
       <use x="453.90625" xlink:href="#DejaVuSans-49"/>
       <use x="517.529297" xlink:href="#DejaVuSans-52"/>
       <use x="581.152344" xlink:href="#DejaVuSans-32"/>
       <use x="612.939453" xlink:href="#DejaVuSans-48"/>
       <use x="676.5625" xlink:href="#DejaVuSans-49"/>
       <use x="740.185547" xlink:href="#DejaVuSans-58"/>
       <use x="773.876953" xlink:href="#DejaVuSans-53"/>
       <use x="837.5" xlink:href="#DejaVuSans-54"/>
      </g>
     </g>
    </g>
    <g id="xtick_2">
     <g id="line2d_2">
      <g>
       <use style="stroke:#000000;stroke-width:0.8;" x="156.543601" xlink:href="#m519661bcee" y="231.917812"/>
      </g>
     </g>
     <g id="text_2">
      <!-- 1998-07-14 02:16 -->
      <defs>
       <path d="M 19.1875 8.296875 
L 53.609375 8.296875 
L 53.609375 0 
L 7.328125 0 
L 7.328125 8.296875 
Q 12.9375 14.109375 22.625 23.890625 
Q 32.328125 33.6875 34.8125 36.53125 
Q 39.546875 41.84375 41.421875 45.53125 
Q 43.3125 49.21875 43.3125 52.78125 
Q 43.3125 58.59375 39.234375 62.25 
Q 35.15625 65.921875 28.609375 65.921875 
Q 23.96875 65.921875 18.8125 64.3125 
Q 13.671875 62.703125 7.8125 59.421875 
L 7.8125 69.390625 
Q 13.765625 71.78125 18.9375 73 
Q 24.125 74.21875 28.421875 74.21875 
Q 39.75 74.21875 46.484375 68.546875 
Q 53.21875 62.890625 53.21875 53.421875 
Q 53.21875 48.921875 51.53125 44.890625 
Q 49.859375 40.875 45.40625 35.40625 
Q 44.1875 33.984375 37.640625 27.21875 
Q 31.109375 20.453125 19.1875 8.296875 
z
" id="DejaVuSans-50"/>
      </defs>
      <g transform="translate(61.648131 300.88184)rotate(-30)scale(0.12 -0.12)">
       <use xlink:href="#DejaVuSans-49"/>
       <use x="63.623047" xlink:href="#DejaVuSans-57"/>
       <use x="127.246094" xlink:href="#DejaVuSans-57"/>
       <use x="190.869141" xlink:href="#DejaVuSans-56"/>
       <use x="254.492188" xlink:href="#DejaVuSans-45"/>
       <use x="290.576172" xlink:href="#DejaVuSans-48"/>
       <use x="354.199219" xlink:href="#DejaVuSans-55"/>
       <use x="417.822266" xlink:href="#DejaVuSans-45"/>
       <use x="453.90625" xlink:href="#DejaVuSans-49"/>
       <use x="517.529297" xlink:href="#DejaVuSans-52"/>
       <use x="581.152344" xlink:href="#DejaVuSans-32"/>
       <use x="612.939453" xlink:href="#DejaVuSans-48"/>
       <use x="676.5625" xlink:href="#DejaVuSans-50"/>
       <use x="740.185547" xlink:href="#DejaVuSans-58"/>
       <use x="773.876953" xlink:href="#DejaVuSans-49"/>
       <use x="837.5" xlink:href="#DejaVuSans-54"/>
      </g>
     </g>
    </g>
    <g id="xtick_3">
     <g id="line2d_3">
      <g>
       <use style="stroke:#000000;stroke-width:0.8;" x="206.432671" xlink:href="#m519661bcee" y="231.917812"/>
      </g>
     </g>
     <g id="text_3">
      <!-- 1998-07-14 02:36 -->
      <defs>
       <path d="M 40.578125 39.3125 
Q 47.65625 37.796875 51.625 33 
Q 55.609375 28.21875 55.609375 21.1875 
Q 55.609375 10.40625 48.1875 4.484375 
Q 40.765625 -1.421875 27.09375 -1.421875 
Q 22.515625 -1.421875 17.65625 -0.515625 
Q 12.796875 0.390625 7.625 2.203125 
L 7.625 11.71875 
Q 11.71875 9.328125 16.59375 8.109375 
Q 21.484375 6.890625 26.8125 6.890625 
Q 36.078125 6.890625 40.9375 10.546875 
Q 45.796875 14.203125 45.796875 21.1875 
Q 45.796875 27.640625 41.28125 31.265625 
Q 36.765625 34.90625 28.71875 34.90625 
L 20.21875 34.90625 
L 20.21875 43.015625 
L 29.109375 43.015625 
Q 36.375 43.015625 40.234375 45.921875 
Q 44.09375 48.828125 44.09375 54.296875 
Q 44.09375 59.90625 40.109375 62.90625 
Q 36.140625 65.921875 28.71875 65.921875 
Q 24.65625 65.921875 20.015625 65.03125 
Q 15.375 64.15625 9.8125 62.3125 
L 9.8125 71.09375 
Q 15.4375 72.65625 20.34375 73.4375 
Q 25.25 74.21875 29.59375 74.21875 
Q 40.828125 74.21875 47.359375 69.109375 
Q 53.90625 64.015625 53.90625 55.328125 
Q 53.90625 49.265625 50.4375 45.09375 
Q 46.96875 40.921875 40.578125 39.3125 
z
" id="DejaVuSans-51"/>
      </defs>
      <g transform="translate(111.537201 300.88184)rotate(-30)scale(0.12 -0.12)">
       <use xlink:href="#DejaVuSans-49"/>
       <use x="63.623047" xlink:href="#DejaVuSans-57"/>
       <use x="127.246094" xlink:href="#DejaVuSans-57"/>
       <use x="190.869141" xlink:href="#DejaVuSans-56"/>
       <use x="254.492188" xlink:href="#DejaVuSans-45"/>
       <use x="290.576172" xlink:href="#DejaVuSans-48"/>
       <use x="354.199219" xlink:href="#DejaVuSans-55"/>
       <use x="417.822266" xlink:href="#DejaVuSans-45"/>
       <use x="453.90625" xlink:href="#DejaVuSans-49"/>
       <use x="517.529297" xlink:href="#DejaVuSans-52"/>
       <use x="581.152344" xlink:href="#DejaVuSans-32"/>
       <use x="612.939453" xlink:href="#DejaVuSans-48"/>
       <use x="676.5625" xlink:href="#DejaVuSans-50"/>
       <use x="740.185547" xlink:href="#DejaVuSans-58"/>
       <use x="773.876953" xlink:href="#DejaVuSans-51"/>
       <use x="837.5" xlink:href="#DejaVuSans-54"/>
      </g>
     </g>
    </g>
    <g id="xtick_4">
     <g id="line2d_4">
      <g>
       <use style="stroke:#000000;stroke-width:0.8;" x="256.32174" xlink:href="#m519661bcee" y="231.917812"/>
      </g>
     </g>
     <g id="text_4">
      <!-- 1998-07-14 02:56 -->
      <g transform="translate(161.426271 300.88184)rotate(-30)scale(0.12 -0.12)">
       <use xlink:href="#DejaVuSans-49"/>
       <use x="63.623047" xlink:href="#DejaVuSans-57"/>
       <use x="127.246094" xlink:href="#DejaVuSans-57"/>
       <use x="190.869141" xlink:href="#DejaVuSans-56"/>
       <use x="254.492188" xlink:href="#DejaVuSans-45"/>
       <use x="290.576172" xlink:href="#DejaVuSans-48"/>
       <use x="354.199219" xlink:href="#DejaVuSans-55"/>
       <use x="417.822266" xlink:href="#DejaVuSans-45"/>
       <use x="453.90625" xlink:href="#DejaVuSans-49"/>
       <use x="517.529297" xlink:href="#DejaVuSans-52"/>
       <use x="581.152344" xlink:href="#DejaVuSans-32"/>
       <use x="612.939453" xlink:href="#DejaVuSans-48"/>
       <use x="676.5625" xlink:href="#DejaVuSans-50"/>
       <use x="740.185547" xlink:href="#DejaVuSans-58"/>
       <use x="773.876953" xlink:href="#DejaVuSans-53"/>
       <use x="837.5" xlink:href="#DejaVuSans-54"/>
      </g>
     </g>
    </g>
    <g id="xtick_5">
     <g id="line2d_5">
      <g>
       <use style="stroke:#000000;stroke-width:0.8;" x="306.210809" xlink:href="#m519661bcee" y="231.917812"/>
      </g>
     </g>
     <g id="text_5">
      <!-- 1998-07-14 03:16 -->
      <g transform="translate(211.31534 300.88184)rotate(-30)scale(0.12 -0.12)">
       <use xlink:href="#DejaVuSans-49"/>
       <use x="63.623047" xlink:href="#DejaVuSans-57"/>
       <use x="127.246094" xlink:href="#DejaVuSans-57"/>
       <use x="190.869141" xlink:href="#DejaVuSans-56"/>
       <use x="254.492188" xlink:href="#DejaVuSans-45"/>
       <use x="290.576172" xlink:href="#DejaVuSans-48"/>
       <use x="354.199219" xlink:href="#DejaVuSans-55"/>
       <use x="417.822266" xlink:href="#DejaVuSans-45"/>
       <use x="453.90625" xlink:href="#DejaVuSans-49"/>
       <use x="517.529297" xlink:href="#DejaVuSans-52"/>
       <use x="581.152344" xlink:href="#DejaVuSans-32"/>
       <use x="612.939453" xlink:href="#DejaVuSans-48"/>
       <use x="676.5625" xlink:href="#DejaVuSans-51"/>
       <use x="740.185547" xlink:href="#DejaVuSans-58"/>
       <use x="773.876953" xlink:href="#DejaVuSans-49"/>
       <use x="837.5" xlink:href="#DejaVuSans-54"/>
      </g>
     </g>
    </g>
    <g id="xtick_6">
     <g id="line2d_6">
      <g>
       <use style="stroke:#000000;stroke-width:0.8;" x="356.099878" xlink:href="#m519661bcee" y="231.917812"/>
      </g>
     </g>
     <g id="text_6">
      <!-- 1998-07-14 03:36 -->
      <g transform="translate(261.204409 300.88184)rotate(-30)scale(0.12 -0.12)">
       <use xlink:href="#DejaVuSans-49"/>
       <use x="63.623047" xlink:href="#DejaVuSans-57"/>
       <use x="127.246094" xlink:href="#DejaVuSans-57"/>
       <use x="190.869141" xlink:href="#DejaVuSans-56"/>
       <use x="254.492188" xlink:href="#DejaVuSans-45"/>
       <use x="290.576172" xlink:href="#DejaVuSans-48"/>
       <use x="354.199219" xlink:href="#DejaVuSans-55"/>
       <use x="417.822266" xlink:href="#DejaVuSans-45"/>
       <use x="453.90625" xlink:href="#DejaVuSans-49"/>
       <use x="517.529297" xlink:href="#DejaVuSans-52"/>
       <use x="581.152344" xlink:href="#DejaVuSans-32"/>
       <use x="612.939453" xlink:href="#DejaVuSans-48"/>
       <use x="676.5625" xlink:href="#DejaVuSans-51"/>
       <use x="740.185547" xlink:href="#DejaVuSans-58"/>
       <use x="773.876953" xlink:href="#DejaVuSans-51"/>
       <use x="837.5" xlink:href="#DejaVuSans-54"/>
      </g>
     </g>
    </g>
    <g id="xtick_7">
     <g id="line2d_7">
      <g>
       <use style="stroke:#000000;stroke-width:0.8;" x="405.988947" xlink:href="#m519661bcee" y="231.917812"/>
      </g>
     </g>
     <g id="text_7">
      <!-- 1998-07-14 03:56 -->
      <g transform="translate(311.093478 300.88184)rotate(-30)scale(0.12 -0.12)">
       <use xlink:href="#DejaVuSans-49"/>
       <use x="63.623047" xlink:href="#DejaVuSans-57"/>
       <use x="127.246094" xlink:href="#DejaVuSans-57"/>
       <use x="190.869141" xlink:href="#DejaVuSans-56"/>
       <use x="254.492188" xlink:href="#DejaVuSans-45"/>
       <use x="290.576172" xlink:href="#DejaVuSans-48"/>
       <use x="354.199219" xlink:href="#DejaVuSans-55"/>
       <use x="417.822266" xlink:href="#DejaVuSans-45"/>
       <use x="453.90625" xlink:href="#DejaVuSans-49"/>
       <use x="517.529297" xlink:href="#DejaVuSans-52"/>
       <use x="581.152344" xlink:href="#DejaVuSans-32"/>
       <use x="612.939453" xlink:href="#DejaVuSans-48"/>
       <use x="676.5625" xlink:href="#DejaVuSans-51"/>
       <use x="740.185547" xlink:href="#DejaVuSans-58"/>
       <use x="773.876953" xlink:href="#DejaVuSans-53"/>
       <use x="837.5" xlink:href="#DejaVuSans-54"/>
      </g>
     </g>
    </g>
    <g id="xtick_8">
     <g id="line2d_8">
      <g>
       <use style="stroke:#000000;stroke-width:0.8;" x="455.878016" xlink:href="#m519661bcee" y="231.917812"/>
      </g>
     </g>
     <g id="text_8">
      <!-- 1998-07-14 04:16 -->
      <g transform="translate(360.982547 300.88184)rotate(-30)scale(0.12 -0.12)">
       <use xlink:href="#DejaVuSans-49"/>
       <use x="63.623047" xlink:href="#DejaVuSans-57"/>
       <use x="127.246094" xlink:href="#DejaVuSans-57"/>
       <use x="190.869141" xlink:href="#DejaVuSans-56"/>
       <use x="254.492188" xlink:href="#DejaVuSans-45"/>
       <use x="290.576172" xlink:href="#DejaVuSans-48"/>
       <use x="354.199219" xlink:href="#DejaVuSans-55"/>
       <use x="417.822266" xlink:href="#DejaVuSans-45"/>
       <use x="453.90625" xlink:href="#DejaVuSans-49"/>
       <use x="517.529297" xlink:href="#DejaVuSans-52"/>
       <use x="581.152344" xlink:href="#DejaVuSans-32"/>
       <use x="612.939453" xlink:href="#DejaVuSans-48"/>
       <use x="676.5625" xlink:href="#DejaVuSans-52"/>
       <use x="740.185547" xlink:href="#DejaVuSans-58"/>
       <use x="773.876953" xlink:href="#DejaVuSans-49"/>
       <use x="837.5" xlink:href="#DejaVuSans-54"/>
      </g>
     </g>
    </g>
    <g id="xtick_9">
     <g id="line2d_9">
      <g>
       <use style="stroke:#000000;stroke-width:0.8;" x="505.767086" xlink:href="#m519661bcee" y="231.917812"/>
      </g>
     </g>
     <g id="text_9">
      <!-- 1998-07-14 04:36 -->
      <g transform="translate(410.871616 300.88184)rotate(-30)scale(0.12 -0.12)">
       <use xlink:href="#DejaVuSans-49"/>
       <use x="63.623047" xlink:href="#DejaVuSans-57"/>
       <use x="127.246094" xlink:href="#DejaVuSans-57"/>
       <use x="190.869141" xlink:href="#DejaVuSans-56"/>
       <use x="254.492188" xlink:href="#DejaVuSans-45"/>
       <use x="290.576172" xlink:href="#DejaVuSans-48"/>
       <use x="354.199219" xlink:href="#DejaVuSans-55"/>
       <use x="417.822266" xlink:href="#DejaVuSans-45"/>
       <use x="453.90625" xlink:href="#DejaVuSans-49"/>
       <use x="517.529297" xlink:href="#DejaVuSans-52"/>
       <use x="581.152344" xlink:href="#DejaVuSans-32"/>
       <use x="612.939453" xlink:href="#DejaVuSans-48"/>
       <use x="676.5625" xlink:href="#DejaVuSans-52"/>
       <use x="740.185547" xlink:href="#DejaVuSans-58"/>
       <use x="773.876953" xlink:href="#DejaVuSans-51"/>
       <use x="837.5" xlink:href="#DejaVuSans-54"/>
      </g>
     </g>
    </g>
    <g id="xtick_10">
     <g id="line2d_10">
      <g>
       <use style="stroke:#000000;stroke-width:0.8;" x="555.656155" xlink:href="#m519661bcee" y="231.917812"/>
      </g>
     </g>
     <g id="text_10">
      <!-- 1998-07-14 04:56 -->
      <g transform="translate(460.760686 300.88184)rotate(-30)scale(0.12 -0.12)">
       <use xlink:href="#DejaVuSans-49"/>
       <use x="63.623047" xlink:href="#DejaVuSans-57"/>
       <use x="127.246094" xlink:href="#DejaVuSans-57"/>
       <use x="190.869141" xlink:href="#DejaVuSans-56"/>
       <use x="254.492188" xlink:href="#DejaVuSans-45"/>
       <use x="290.576172" xlink:href="#DejaVuSans-48"/>
       <use x="354.199219" xlink:href="#DejaVuSans-55"/>
       <use x="417.822266" xlink:href="#DejaVuSans-45"/>
       <use x="453.90625" xlink:href="#DejaVuSans-49"/>
       <use x="517.529297" xlink:href="#DejaVuSans-52"/>
       <use x="581.152344" xlink:href="#DejaVuSans-32"/>
       <use x="612.939453" xlink:href="#DejaVuSans-48"/>
       <use x="676.5625" xlink:href="#DejaVuSans-52"/>
       <use x="740.185547" xlink:href="#DejaVuSans-58"/>
       <use x="773.876953" xlink:href="#DejaVuSans-53"/>
       <use x="837.5" xlink:href="#DejaVuSans-54"/>
      </g>
     </g>
    </g>
    <g id="xtick_11">
     <g id="line2d_11">
      <g>
       <use style="stroke:#000000;stroke-width:0.8;" x="605.545224" xlink:href="#m519661bcee" y="231.917812"/>
      </g>
     </g>
     <g id="text_11">
      <!-- 1998-07-14 05:16 -->
      <g transform="translate(510.649755 300.88184)rotate(-30)scale(0.12 -0.12)">
       <use xlink:href="#DejaVuSans-49"/>
       <use x="63.623047" xlink:href="#DejaVuSans-57"/>
       <use x="127.246094" xlink:href="#DejaVuSans-57"/>
       <use x="190.869141" xlink:href="#DejaVuSans-56"/>
       <use x="254.492188" xlink:href="#DejaVuSans-45"/>
       <use x="290.576172" xlink:href="#DejaVuSans-48"/>
       <use x="354.199219" xlink:href="#DejaVuSans-55"/>
       <use x="417.822266" xlink:href="#DejaVuSans-45"/>
       <use x="453.90625" xlink:href="#DejaVuSans-49"/>
       <use x="517.529297" xlink:href="#DejaVuSans-52"/>
       <use x="581.152344" xlink:href="#DejaVuSans-32"/>
       <use x="612.939453" xlink:href="#DejaVuSans-48"/>
       <use x="676.5625" xlink:href="#DejaVuSans-53"/>
       <use x="740.185547" xlink:href="#DejaVuSans-58"/>
       <use x="773.876953" xlink:href="#DejaVuSans-49"/>
       <use x="837.5" xlink:href="#DejaVuSans-54"/>
      </g>
     </g>
    </g>
    <g id="xtick_12">
     <g id="line2d_12">
      <g>
       <use style="stroke:#000000;stroke-width:0.8;" x="655.434293" xlink:href="#m519661bcee" y="231.917812"/>
      </g>
     </g>
     <g id="text_12">
      <!-- 1998-07-14 05:36 -->
      <g transform="translate(560.538824 300.88184)rotate(-30)scale(0.12 -0.12)">
       <use xlink:href="#DejaVuSans-49"/>
       <use x="63.623047" xlink:href="#DejaVuSans-57"/>
       <use x="127.246094" xlink:href="#DejaVuSans-57"/>
       <use x="190.869141" xlink:href="#DejaVuSans-56"/>
       <use x="254.492188" xlink:href="#DejaVuSans-45"/>
       <use x="290.576172" xlink:href="#DejaVuSans-48"/>
       <use x="354.199219" xlink:href="#DejaVuSans-55"/>
       <use x="417.822266" xlink:href="#DejaVuSans-45"/>
       <use x="453.90625" xlink:href="#DejaVuSans-49"/>
       <use x="517.529297" xlink:href="#DejaVuSans-52"/>
       <use x="581.152344" xlink:href="#DejaVuSans-32"/>
       <use x="612.939453" xlink:href="#DejaVuSans-48"/>
       <use x="676.5625" xlink:href="#DejaVuSans-53"/>
       <use x="740.185547" xlink:href="#DejaVuSans-58"/>
       <use x="773.876953" xlink:href="#DejaVuSans-51"/>
       <use x="837.5" xlink:href="#DejaVuSans-54"/>
      </g>
     </g>
    </g>
    <g id="xtick_13">
     <g id="line2d_13">
      <g>
       <use style="stroke:#000000;stroke-width:0.8;" x="705.323363" xlink:href="#m519661bcee" y="231.917812"/>
      </g>
     </g>
     <g id="text_13">
      <!-- 1998-07-14 05:56 -->
      <g transform="translate(610.427893 300.88184)rotate(-30)scale(0.12 -0.12)">
       <use xlink:href="#DejaVuSans-49"/>
       <use x="63.623047" xlink:href="#DejaVuSans-57"/>
       <use x="127.246094" xlink:href="#DejaVuSans-57"/>
       <use x="190.869141" xlink:href="#DejaVuSans-56"/>
       <use x="254.492188" xlink:href="#DejaVuSans-45"/>
       <use x="290.576172" xlink:href="#DejaVuSans-48"/>
       <use x="354.199219" xlink:href="#DejaVuSans-55"/>
       <use x="417.822266" xlink:href="#DejaVuSans-45"/>
       <use x="453.90625" xlink:href="#DejaVuSans-49"/>
       <use x="517.529297" xlink:href="#DejaVuSans-52"/>
       <use x="581.152344" xlink:href="#DejaVuSans-32"/>
       <use x="612.939453" xlink:href="#DejaVuSans-48"/>
       <use x="676.5625" xlink:href="#DejaVuSans-53"/>
       <use x="740.185547" xlink:href="#DejaVuSans-58"/>
       <use x="773.876953" xlink:href="#DejaVuSans-53"/>
       <use x="837.5" xlink:href="#DejaVuSans-54"/>
      </g>
     </g>
    </g>
    <g id="xtick_14">
     <g id="line2d_14">
      <g>
       <use style="stroke:#000000;stroke-width:0.8;" x="755.212432" xlink:href="#m519661bcee" y="231.917812"/>
      </g>
     </g>
     <g id="text_14">
      <!-- 1998-07-14 06:16 -->
      <g transform="translate(660.316962 300.88184)rotate(-30)scale(0.12 -0.12)">
       <use xlink:href="#DejaVuSans-49"/>
       <use x="63.623047" xlink:href="#DejaVuSans-57"/>
       <use x="127.246094" xlink:href="#DejaVuSans-57"/>
       <use x="190.869141" xlink:href="#DejaVuSans-56"/>
       <use x="254.492188" xlink:href="#DejaVuSans-45"/>
       <use x="290.576172" xlink:href="#DejaVuSans-48"/>
       <use x="354.199219" xlink:href="#DejaVuSans-55"/>
       <use x="417.822266" xlink:href="#DejaVuSans-45"/>
       <use x="453.90625" xlink:href="#DejaVuSans-49"/>
       <use x="517.529297" xlink:href="#DejaVuSans-52"/>
       <use x="581.152344" xlink:href="#DejaVuSans-32"/>
       <use x="612.939453" xlink:href="#DejaVuSans-48"/>
       <use x="676.5625" xlink:href="#DejaVuSans-54"/>
       <use x="740.185547" xlink:href="#DejaVuSans-58"/>
       <use x="773.876953" xlink:href="#DejaVuSans-49"/>
       <use x="837.5" xlink:href="#DejaVuSans-54"/>
      </g>
     </g>
    </g>
    <g id="xtick_15">
     <g id="line2d_15">
      <g>
       <use style="stroke:#000000;stroke-width:0.8;" x="805.101501" xlink:href="#m519661bcee" y="231.917812"/>
      </g>
     </g>
     <g id="text_15">
      <!-- 1998-07-14 06:36 -->
      <g transform="translate(710.206031 300.88184)rotate(-30)scale(0.12 -0.12)">
       <use xlink:href="#DejaVuSans-49"/>
       <use x="63.623047" xlink:href="#DejaVuSans-57"/>
       <use x="127.246094" xlink:href="#DejaVuSans-57"/>
       <use x="190.869141" xlink:href="#DejaVuSans-56"/>
       <use x="254.492188" xlink:href="#DejaVuSans-45"/>
       <use x="290.576172" xlink:href="#DejaVuSans-48"/>
       <use x="354.199219" xlink:href="#DejaVuSans-55"/>
       <use x="417.822266" xlink:href="#DejaVuSans-45"/>
       <use x="453.90625" xlink:href="#DejaVuSans-49"/>
       <use x="517.529297" xlink:href="#DejaVuSans-52"/>
       <use x="581.152344" xlink:href="#DejaVuSans-32"/>
       <use x="612.939453" xlink:href="#DejaVuSans-48"/>
       <use x="676.5625" xlink:href="#DejaVuSans-54"/>
       <use x="740.185547" xlink:href="#DejaVuSans-58"/>
       <use x="773.876953" xlink:href="#DejaVuSans-51"/>
       <use x="837.5" xlink:href="#DejaVuSans-54"/>
      </g>
     </g>
    </g>
    <g id="text_16">
     <!-- Time (Second) -->
     <defs>
      <path d="M -0.296875 72.90625 
L 61.375 72.90625 
L 61.375 64.59375 
L 35.5 64.59375 
L 35.5 0 
L 25.59375 0 
L 25.59375 64.59375 
L -0.296875 64.59375 
z
" id="DejaVuSans-84"/>
      <path d="M 9.421875 54.6875 
L 18.40625 54.6875 
L 18.40625 0 
L 9.421875 0 
z
M 9.421875 75.984375 
L 18.40625 75.984375 
L 18.40625 64.59375 
L 9.421875 64.59375 
z
" id="DejaVuSans-105"/>
      <path d="M 52 44.1875 
Q 55.375 50.25 60.0625 53.125 
Q 64.75 56 71.09375 56 
Q 79.640625 56 84.28125 50.015625 
Q 88.921875 44.046875 88.921875 33.015625 
L 88.921875 0 
L 79.890625 0 
L 79.890625 32.71875 
Q 79.890625 40.578125 77.09375 44.375 
Q 74.3125 48.1875 68.609375 48.1875 
Q 61.625 48.1875 57.5625 43.546875 
Q 53.515625 38.921875 53.515625 30.90625 
L 53.515625 0 
L 44.484375 0 
L 44.484375 32.71875 
Q 44.484375 40.625 41.703125 44.40625 
Q 38.921875 48.1875 33.109375 48.1875 
Q 26.21875 48.1875 22.15625 43.53125 
Q 18.109375 38.875 18.109375 30.90625 
L 18.109375 0 
L 9.078125 0 
L 9.078125 54.6875 
L 18.109375 54.6875 
L 18.109375 46.1875 
Q 21.1875 51.21875 25.484375 53.609375 
Q 29.78125 56 35.6875 56 
Q 41.65625 56 45.828125 52.96875 
Q 50 49.953125 52 44.1875 
z
" id="DejaVuSans-109"/>
      <path d="M 56.203125 29.59375 
L 56.203125 25.203125 
L 14.890625 25.203125 
Q 15.484375 15.921875 20.484375 11.0625 
Q 25.484375 6.203125 34.421875 6.203125 
Q 39.59375 6.203125 44.453125 7.46875 
Q 49.3125 8.734375 54.109375 11.28125 
L 54.109375 2.78125 
Q 49.265625 0.734375 44.1875 -0.34375 
Q 39.109375 -1.421875 33.890625 -1.421875 
Q 20.796875 -1.421875 13.15625 6.1875 
Q 5.515625 13.8125 5.515625 26.8125 
Q 5.515625 40.234375 12.765625 48.109375 
Q 20.015625 56 32.328125 56 
Q 43.359375 56 49.78125 48.890625 
Q 56.203125 41.796875 56.203125 29.59375 
z
M 47.21875 32.234375 
Q 47.125 39.59375 43.09375 43.984375 
Q 39.0625 48.390625 32.421875 48.390625 
Q 24.90625 48.390625 20.390625 44.140625 
Q 15.875 39.890625 15.1875 32.171875 
z
" id="DejaVuSans-101"/>
      <path d="M 31 75.875 
Q 24.46875 64.65625 21.28125 53.65625 
Q 18.109375 42.671875 18.109375 31.390625 
Q 18.109375 20.125 21.3125 9.0625 
Q 24.515625 -2 31 -13.1875 
L 23.1875 -13.1875 
Q 15.875 -1.703125 12.234375 9.375 
Q 8.59375 20.453125 8.59375 31.390625 
Q 8.59375 42.28125 12.203125 53.3125 
Q 15.828125 64.359375 23.1875 75.875 
z
" id="DejaVuSans-40"/>
      <path d="M 53.515625 70.515625 
L 53.515625 60.890625 
Q 47.90625 63.578125 42.921875 64.890625 
Q 37.9375 66.21875 33.296875 66.21875 
Q 25.25 66.21875 20.875 63.09375 
Q 16.5 59.96875 16.5 54.203125 
Q 16.5 49.359375 19.40625 46.890625 
Q 22.3125 44.4375 30.421875 42.921875 
L 36.375 41.703125 
Q 47.40625 39.59375 52.65625 34.296875 
Q 57.90625 29 57.90625 20.125 
Q 57.90625 9.515625 50.796875 4.046875 
Q 43.703125 -1.421875 29.984375 -1.421875 
Q 24.8125 -1.421875 18.96875 -0.25 
Q 13.140625 0.921875 6.890625 3.21875 
L 6.890625 13.375 
Q 12.890625 10.015625 18.65625 8.296875 
Q 24.421875 6.59375 29.984375 6.59375 
Q 38.421875 6.59375 43.015625 9.90625 
Q 47.609375 13.234375 47.609375 19.390625 
Q 47.609375 24.75 44.3125 27.78125 
Q 41.015625 30.8125 33.5 32.328125 
L 27.484375 33.5 
Q 16.453125 35.6875 11.515625 40.375 
Q 6.59375 45.0625 6.59375 53.421875 
Q 6.59375 63.09375 13.40625 68.65625 
Q 20.21875 74.21875 32.171875 74.21875 
Q 37.3125 74.21875 42.625 73.28125 
Q 47.953125 72.359375 53.515625 70.515625 
z
" id="DejaVuSans-83"/>
      <path d="M 48.78125 52.59375 
L 48.78125 44.1875 
Q 44.96875 46.296875 41.140625 47.34375 
Q 37.3125 48.390625 33.40625 48.390625 
Q 24.65625 48.390625 19.8125 42.84375 
Q 14.984375 37.3125 14.984375 27.296875 
Q 14.984375 17.28125 19.8125 11.734375 
Q 24.65625 6.203125 33.40625 6.203125 
Q 37.3125 6.203125 41.140625 7.25 
Q 44.96875 8.296875 48.78125 10.40625 
L 48.78125 2.09375 
Q 45.015625 0.34375 40.984375 -0.53125 
Q 36.96875 -1.421875 32.421875 -1.421875 
Q 20.0625 -1.421875 12.78125 6.34375 
Q 5.515625 14.109375 5.515625 27.296875 
Q 5.515625 40.671875 12.859375 48.328125 
Q 20.21875 56 33.015625 56 
Q 37.15625 56 41.109375 55.140625 
Q 45.0625 54.296875 48.78125 52.59375 
z
" id="DejaVuSans-99"/>
      <path d="M 30.609375 48.390625 
Q 23.390625 48.390625 19.1875 42.75 
Q 14.984375 37.109375 14.984375 27.296875 
Q 14.984375 17.484375 19.15625 11.84375 
Q 23.34375 6.203125 30.609375 6.203125 
Q 37.796875 6.203125 41.984375 11.859375 
Q 46.1875 17.53125 46.1875 27.296875 
Q 46.1875 37.015625 41.984375 42.703125 
Q 37.796875 48.390625 30.609375 48.390625 
z
M 30.609375 56 
Q 42.328125 56 49.015625 48.375 
Q 55.71875 40.765625 55.71875 27.296875 
Q 55.71875 13.875 49.015625 6.21875 
Q 42.328125 -1.421875 30.609375 -1.421875 
Q 18.84375 -1.421875 12.171875 6.21875 
Q 5.515625 13.875 5.515625 27.296875 
Q 5.515625 40.765625 12.171875 48.375 
Q 18.84375 56 30.609375 56 
z
" id="DejaVuSans-111"/>
      <path d="M 54.890625 33.015625 
L 54.890625 0 
L 45.90625 0 
L 45.90625 32.71875 
Q 45.90625 40.484375 42.875 44.328125 
Q 39.84375 48.1875 33.796875 48.1875 
Q 26.515625 48.1875 22.3125 43.546875 
Q 18.109375 38.921875 18.109375 30.90625 
L 18.109375 0 
L 9.078125 0 
L 9.078125 54.6875 
L 18.109375 54.6875 
L 18.109375 46.1875 
Q 21.34375 51.125 25.703125 53.5625 
Q 30.078125 56 35.796875 56 
Q 45.21875 56 50.046875 50.171875 
Q 54.890625 44.34375 54.890625 33.015625 
z
" id="DejaVuSans-110"/>
      <path d="M 45.40625 46.390625 
L 45.40625 75.984375 
L 54.390625 75.984375 
L 54.390625 0 
L 45.40625 0 
L 45.40625 8.203125 
Q 42.578125 3.328125 38.25 0.953125 
Q 33.9375 -1.421875 27.875 -1.421875 
Q 17.96875 -1.421875 11.734375 6.484375 
Q 5.515625 14.40625 5.515625 27.296875 
Q 5.515625 40.1875 11.734375 48.09375 
Q 17.96875 56 27.875 56 
Q 33.9375 56 38.25 53.625 
Q 42.578125 51.265625 45.40625 46.390625 
z
M 14.796875 27.296875 
Q 14.796875 17.390625 18.875 11.75 
Q 22.953125 6.109375 30.078125 6.109375 
Q 37.203125 6.109375 41.296875 11.75 
Q 45.40625 17.390625 45.40625 27.296875 
Q 45.40625 37.203125 41.296875 42.84375 
Q 37.203125 48.484375 30.078125 48.484375 
Q 22.953125 48.484375 18.875 42.84375 
Q 14.796875 37.203125 14.796875 27.296875 
z
" id="DejaVuSans-100"/>
      <path d="M 8.015625 75.875 
L 15.828125 75.875 
Q 23.140625 64.359375 26.78125 53.3125 
Q 30.421875 42.28125 30.421875 31.390625 
Q 30.421875 20.453125 26.78125 9.375 
Q 23.140625 -1.703125 15.828125 -13.1875 
L 8.015625 -13.1875 
Q 14.5 -2 17.703125 9.0625 
Q 20.90625 20.125 20.90625 31.390625 
Q 20.90625 42.671875 17.703125 53.65625 
Q 14.5 64.65625 8.015625 75.875 
z
" id="DejaVuSans-41"/>
     </defs>
     <g transform="translate(389.086882 317.680928)scale(0.14 -0.14)">
      <use xlink:href="#DejaVuSans-84"/>
      <use x="57.958984" xlink:href="#DejaVuSans-105"/>
      <use x="85.742188" xlink:href="#DejaVuSans-109"/>
      <use x="183.154297" xlink:href="#DejaVuSans-101"/>
      <use x="244.677734" xlink:href="#DejaVuSans-32"/>
      <use x="276.464844" xlink:href="#DejaVuSans-40"/>
      <use x="315.478516" xlink:href="#DejaVuSans-83"/>
      <use x="378.955078" xlink:href="#DejaVuSans-101"/>
      <use x="440.478516" xlink:href="#DejaVuSans-99"/>
      <use x="495.458984" xlink:href="#DejaVuSans-111"/>
      <use x="556.640625" xlink:href="#DejaVuSans-110"/>
      <use x="620.019531" xlink:href="#DejaVuSans-100"/>
      <use x="683.496094" xlink:href="#DejaVuSans-41"/>
     </g>
    </g>
   </g>
   <g id="matplotlib.axis_2">
    <g id="ytick_1">
     <g id="line2d_16">
      <defs>
       <path d="M 0 0 
L -3.5 0 
" id="mf32f3bd91b" style="stroke:#000000;stroke-width:0.8;"/>
      </defs>
      <g>
       <use style="stroke:#000000;stroke-width:0.8;" x="63.01407" xlink:href="#mf32f3bd91b" y="216.088023"/>
      </g>
     </g>
     <g id="text_17">
      <!-- 8 -->
      <g transform="translate(49.65157 219.887242)scale(0.1 -0.1)">
       <use xlink:href="#DejaVuSans-56"/>
      </g>
     </g>
    </g>
    <g id="ytick_2">
     <g id="line2d_17">
      <g>
       <use style="stroke:#000000;stroke-width:0.8;" x="63.01407" xlink:href="#mf32f3bd91b" y="189.974876"/>
      </g>
     </g>
     <g id="text_18">
      <!-- 9 -->
      <g transform="translate(49.65157 193.774095)scale(0.1 -0.1)">
       <use xlink:href="#DejaVuSans-57"/>
      </g>
     </g>
    </g>
    <g id="ytick_3">
     <g id="line2d_18">
      <g>
       <use style="stroke:#000000;stroke-width:0.8;" x="63.01407" xlink:href="#mf32f3bd91b" y="163.861729"/>
      </g>
     </g>
     <g id="text_19">
      <!-- 10 -->
      <g transform="translate(43.28907 167.660948)scale(0.1 -0.1)">
       <use xlink:href="#DejaVuSans-49"/>
       <use x="63.623047" xlink:href="#DejaVuSans-48"/>
      </g>
     </g>
    </g>
    <g id="ytick_4">
     <g id="line2d_19">
      <g>
       <use style="stroke:#000000;stroke-width:0.8;" x="63.01407" xlink:href="#mf32f3bd91b" y="137.748582"/>
      </g>
     </g>
     <g id="text_20">
      <!-- 11 -->
      <g transform="translate(43.28907 141.547801)scale(0.1 -0.1)">
       <use xlink:href="#DejaVuSans-49"/>
       <use x="63.623047" xlink:href="#DejaVuSans-49"/>
      </g>
     </g>
    </g>
    <g id="ytick_5">
     <g id="line2d_20">
      <g>
       <use style="stroke:#000000;stroke-width:0.8;" x="63.01407" xlink:href="#mf32f3bd91b" y="111.635435"/>
      </g>
     </g>
     <g id="text_21">
      <!-- 12 -->
      <g transform="translate(43.28907 115.434654)scale(0.1 -0.1)">
       <use xlink:href="#DejaVuSans-49"/>
       <use x="63.623047" xlink:href="#DejaVuSans-50"/>
      </g>
     </g>
    </g>
    <g id="ytick_6">
     <g id="line2d_21">
      <g>
       <use style="stroke:#000000;stroke-width:0.8;" x="63.01407" xlink:href="#mf32f3bd91b" y="85.522288"/>
      </g>
     </g>
     <g id="text_22">
      <!-- 13 -->
      <g transform="translate(43.28907 89.321507)scale(0.1 -0.1)">
       <use xlink:href="#DejaVuSans-49"/>
       <use x="63.623047" xlink:href="#DejaVuSans-51"/>
      </g>
     </g>
    </g>
    <g id="ytick_7">
     <g id="line2d_22">
      <g>
       <use style="stroke:#000000;stroke-width:0.8;" x="63.01407" xlink:href="#mf32f3bd91b" y="59.409141"/>
      </g>
     </g>
     <g id="text_23">
      <!-- 14 -->
      <g transform="translate(43.28907 63.20836)scale(0.1 -0.1)">
       <use xlink:href="#DejaVuSans-49"/>
       <use x="63.623047" xlink:href="#DejaVuSans-52"/>
      </g>
     </g>
    </g>
    <g id="ytick_8">
     <g id="line2d_23">
      <g>
       <use style="stroke:#000000;stroke-width:0.8;" x="63.01407" xlink:href="#mf32f3bd91b" y="33.295994"/>
      </g>
     </g>
     <g id="text_24">
      <!-- 15 -->
      <g transform="translate(43.28907 37.095213)scale(0.1 -0.1)">
       <use xlink:href="#DejaVuSans-49"/>
       <use x="63.623047" xlink:href="#DejaVuSans-53"/>
      </g>
     </g>
    </g>
    <g id="text_25">
     <!-- Number of Pods -->
     <defs>
      <path d="M 9.8125 72.90625 
L 23.09375 72.90625 
L 55.421875 11.921875 
L 55.421875 72.90625 
L 64.984375 72.90625 
L 64.984375 0 
L 51.703125 0 
L 19.390625 60.984375 
L 19.390625 0 
L 9.8125 0 
z
" id="DejaVuSans-78"/>
      <path d="M 8.5 21.578125 
L 8.5 54.6875 
L 17.484375 54.6875 
L 17.484375 21.921875 
Q 17.484375 14.15625 20.5 10.265625 
Q 23.53125 6.390625 29.59375 6.390625 
Q 36.859375 6.390625 41.078125 11.03125 
Q 45.3125 15.671875 45.3125 23.6875 
L 45.3125 54.6875 
L 54.296875 54.6875 
L 54.296875 0 
L 45.3125 0 
L 45.3125 8.40625 
Q 42.046875 3.421875 37.71875 1 
Q 33.40625 -1.421875 27.6875 -1.421875 
Q 18.265625 -1.421875 13.375 4.4375 
Q 8.5 10.296875 8.5 21.578125 
z
M 31.109375 56 
z
" id="DejaVuSans-117"/>
      <path d="M 48.6875 27.296875 
Q 48.6875 37.203125 44.609375 42.84375 
Q 40.53125 48.484375 33.40625 48.484375 
Q 26.265625 48.484375 22.1875 42.84375 
Q 18.109375 37.203125 18.109375 27.296875 
Q 18.109375 17.390625 22.1875 11.75 
Q 26.265625 6.109375 33.40625 6.109375 
Q 40.53125 6.109375 44.609375 11.75 
Q 48.6875 17.390625 48.6875 27.296875 
z
M 18.109375 46.390625 
Q 20.953125 51.265625 25.265625 53.625 
Q 29.59375 56 35.59375 56 
Q 45.5625 56 51.78125 48.09375 
Q 58.015625 40.1875 58.015625 27.296875 
Q 58.015625 14.40625 51.78125 6.484375 
Q 45.5625 -1.421875 35.59375 -1.421875 
Q 29.59375 -1.421875 25.265625 0.953125 
Q 20.953125 3.328125 18.109375 8.203125 
L 18.109375 0 
L 9.078125 0 
L 9.078125 75.984375 
L 18.109375 75.984375 
z
" id="DejaVuSans-98"/>
      <path d="M 41.109375 46.296875 
Q 39.59375 47.171875 37.8125 47.578125 
Q 36.03125 48 33.890625 48 
Q 26.265625 48 22.1875 43.046875 
Q 18.109375 38.09375 18.109375 28.8125 
L 18.109375 0 
L 9.078125 0 
L 9.078125 54.6875 
L 18.109375 54.6875 
L 18.109375 46.1875 
Q 20.953125 51.171875 25.484375 53.578125 
Q 30.03125 56 36.53125 56 
Q 37.453125 56 38.578125 55.875 
Q 39.703125 55.765625 41.0625 55.515625 
z
" id="DejaVuSans-114"/>
      <path d="M 37.109375 75.984375 
L 37.109375 68.5 
L 28.515625 68.5 
Q 23.6875 68.5 21.796875 66.546875 
Q 19.921875 64.59375 19.921875 59.515625 
L 19.921875 54.6875 
L 34.71875 54.6875 
L 34.71875 47.703125 
L 19.921875 47.703125 
L 19.921875 0 
L 10.890625 0 
L 10.890625 47.703125 
L 2.296875 47.703125 
L 2.296875 54.6875 
L 10.890625 54.6875 
L 10.890625 58.5 
Q 10.890625 67.625 15.140625 71.796875 
Q 19.390625 75.984375 28.609375 75.984375 
z
" id="DejaVuSans-102"/>
      <path d="M 19.671875 64.796875 
L 19.671875 37.40625 
L 32.078125 37.40625 
Q 38.96875 37.40625 42.71875 40.96875 
Q 46.484375 44.53125 46.484375 51.125 
Q 46.484375 57.671875 42.71875 61.234375 
Q 38.96875 64.796875 32.078125 64.796875 
z
M 9.8125 72.90625 
L 32.078125 72.90625 
Q 44.34375 72.90625 50.609375 67.359375 
Q 56.890625 61.8125 56.890625 51.125 
Q 56.890625 40.328125 50.609375 34.8125 
Q 44.34375 29.296875 32.078125 29.296875 
L 19.671875 29.296875 
L 19.671875 0 
L 9.8125 0 
z
" id="DejaVuSans-80"/>
      <path d="M 44.28125 53.078125 
L 44.28125 44.578125 
Q 40.484375 46.53125 36.375 47.5 
Q 32.28125 48.484375 27.875 48.484375 
Q 21.1875 48.484375 17.84375 46.4375 
Q 14.5 44.390625 14.5 40.28125 
Q 14.5 37.15625 16.890625 35.375 
Q 19.28125 33.59375 26.515625 31.984375 
L 29.59375 31.296875 
Q 39.15625 29.25 43.1875 25.515625 
Q 47.21875 21.78125 47.21875 15.09375 
Q 47.21875 7.46875 41.1875 3.015625 
Q 35.15625 -1.421875 24.609375 -1.421875 
Q 20.21875 -1.421875 15.453125 -0.5625 
Q 10.6875 0.296875 5.421875 2 
L 5.421875 11.28125 
Q 10.40625 8.6875 15.234375 7.390625 
Q 20.0625 6.109375 24.8125 6.109375 
Q 31.15625 6.109375 34.5625 8.28125 
Q 37.984375 10.453125 37.984375 14.40625 
Q 37.984375 18.0625 35.515625 20.015625 
Q 33.0625 21.96875 24.703125 23.78125 
L 21.578125 24.515625 
Q 13.234375 26.265625 9.515625 29.90625 
Q 5.8125 33.546875 5.8125 39.890625 
Q 5.8125 47.609375 11.28125 51.796875 
Q 16.75 56 26.8125 56 
Q 31.78125 56 36.171875 55.265625 
Q 40.578125 54.546875 44.28125 53.078125 
z
" id="DejaVuSans-115"/>
     </defs>
     <g transform="translate(36.377507 183.535469)rotate(-90)scale(0.14 -0.14)">
      <use xlink:href="#DejaVuSans-78"/>
      <use x="74.804688" xlink:href="#DejaVuSans-117"/>
      <use x="138.183594" xlink:href="#DejaVuSans-109"/>
      <use x="235.595703" xlink:href="#DejaVuSans-98"/>
      <use x="299.072266" xlink:href="#DejaVuSans-101"/>
      <use x="360.595703" xlink:href="#DejaVuSans-114"/>
      <use x="401.708984" xlink:href="#DejaVuSans-32"/>
      <use x="433.496094" xlink:href="#DejaVuSans-111"/>
      <use x="494.677734" xlink:href="#DejaVuSans-102"/>
      <use x="529.882812" xlink:href="#DejaVuSans-32"/>
      <use x="561.669922" xlink:href="#DejaVuSans-80"/>
      <use x="618.347656" xlink:href="#DejaVuSans-111"/>
      <use x="679.529297" xlink:href="#DejaVuSans-100"/>
      <use x="743.005859" xlink:href="#DejaVuSans-115"/>
     </g>
    </g>
   </g>
   <g id="line2d_24">
    <path clip-path="url(#pe99a35e705)" d="M 66.743277 59.409141 
L 71.732184 59.409141 
L 74.226637 33.295994 
L 99.171172 33.295994 
L 101.665626 59.409141 
L 159.038055 59.409141 
L 161.532508 33.295994 
L 166.521415 33.295994 
L 169.015869 59.409141 
L 181.488136 59.409141 
L 183.98259 85.522288 
L 198.94931 85.522288 
L 201.443764 59.409141 
L 208.927124 59.409141 
L 211.421578 85.522288 
L 256.32174 85.522288 
L 258.816193 111.635435 
L 273.782914 111.635435 
L 276.277368 85.522288 
L 306.210809 85.522288 
L 308.705262 59.409141 
L 313.69417 59.409141 
L 316.188623 85.522288 
L 383.538867 85.522288 
L 386.033319 111.635435 
L 398.505587 111.635435 
L 401.000041 85.522288 
L 430.933482 85.522288 
L 433.427936 111.635435 
L 473.339191 111.635435 
L 475.833644 137.748582 
L 563.139516 137.748582 
L 565.633969 163.861729 
L 590.578503 163.861729 
L 593.072957 137.748582 
L 605.545225 137.748582 
L 608.039678 163.861729 
L 640.467573 163.861729 
L 642.962026 189.974876 
L 652.93984 189.974876 
L 655.434294 163.861729 
L 667.90656 163.861729 
L 670.401014 137.748582 
L 675.389921 137.748582 
L 677.884375 163.861729 
L 697.840003 163.861729 
L 700.334456 137.748582 
L 705.323363 137.748582 
L 707.817816 163.861729 
L 717.79563 163.861729 
L 720.290083 137.748582 
L 730.267897 137.748582 
L 732.762351 163.861729 
L 760.201339 163.861729 
L 762.695792 137.748582 
L 767.6847 137.748582 
L 770.179152 163.861729 
L 780.156966 163.861729 
L 782.65142 137.748582 
L 805.101501 137.748582 
L 807.595954 163.861729 
L 812.584861 163.861729 
L 812.584861 163.861729 
" style="fill:none;stroke:#0000ff;stroke-linecap:square;stroke-width:1.5;"/>
   </g>
   <g id="line2d_25">
    <path clip-path="url(#pe99a35e705)" d="M 66.743277 85.522288 
L 71.732184 85.522288 
L 74.226637 111.635435 
L 84.204451 111.635435 
L 86.698905 59.409141 
L 94.182265 59.409141 
L 96.676718 33.295994 
L 101.665626 33.295994 
L 104.160079 59.409141 
L 114.137893 59.409141 
L 116.632346 85.522288 
L 126.61016 85.522288 
L 129.104613 59.409141 
L 134.093521 59.409141 
L 136.587974 85.522288 
L 146.565787 85.522288 
L 149.060241 59.409141 
L 156.543602 59.409141 
L 159.038055 85.522288 
L 169.015869 85.522288 
L 171.510322 59.409141 
L 178.993683 59.409141 
L 181.488136 85.522288 
L 196.454857 85.522288 
L 198.94931 111.635435 
L 208.927124 111.635435 
L 211.421578 85.522288 
L 218.904938 85.522288 
L 221.399392 111.635435 
L 236.366112 111.635435 
L 238.860566 85.522288 
L 243.849473 85.522288 
L 246.343926 111.635435 
L 266.299553 111.635435 
L 268.794007 137.748582 
L 278.771821 137.748582 
L 281.266274 111.635435 
L 286.255181 111.635435 
L 288.749635 85.522288 
L 308.705262 85.522288 
L 311.199716 59.409141 
L 316.188623 59.409141 
L 318.683076 111.635435 
L 328.66089 111.635435 
L 331.155344 137.748582 
L 341.133158 137.748582 
L 343.627611 111.635435 
L 353.605425 111.635435 
L 356.099878 85.522288 
L 361.088785 85.522288 
L 363.583239 111.635435 
L 378.549959 111.635435 
L 381.044413 85.522288 
L 386.033319 85.522288 
L 388.527773 137.748582 
L 398.505587 137.748582 
L 401.000041 111.635435 
L 405.988947 111.635435 
L 408.483401 85.522288 
L 415.966762 85.522288 
L 418.461215 111.635435 
L 430.933482 111.635435 
L 433.427936 85.522288 
L 438.416842 85.522288 
L 440.911296 137.748582 
L 463.361377 137.748582 
L 465.855831 111.635435 
L 473.339191 111.635435 
L 475.833644 137.748582 
L 488.305912 137.748582 
L 490.800365 111.635435 
L 495.789272 111.635435 
L 498.283725 163.861729 
L 510.755993 163.861729 
L 513.250446 137.748582 
L 530.71162 137.748582 
L 533.206074 163.861729 
L 543.183888 163.861729 
L 545.678341 137.748582 
L 555.656155 137.748582 
L 558.150609 163.861729 
L 570.622876 163.861729 
L 573.117329 189.974876 
L 583.095143 189.974876 
L 585.589597 163.861729 
L 593.072957 163.861729 
L 595.56741 137.748582 
L 603.050771 137.748582 
L 605.545225 163.861729 
L 625.500852 163.861729 
L 627.995306 216.088023 
L 637.973119 216.088023 
L 640.467573 189.974876 
L 650.445386 189.974876 
L 652.93984 163.861729 
L 657.928747 163.861729 
L 660.4232 189.974876 
L 670.401014 189.974876 
L 672.895468 137.748582 
L 677.884375 137.748582 
L 680.378828 189.974876 
L 690.356642 189.974876 
L 692.851095 163.861729 
L 700.334456 163.861729 
L 702.828909 137.748582 
L 707.817816 137.748582 
L 710.312269 163.861729 
L 720.290083 163.861729 
L 722.784537 137.748582 
L 727.773444 137.748582 
L 730.267897 163.861729 
L 747.729072 163.861729 
L 750.223525 189.974876 
L 760.201339 189.974876 
L 762.695792 163.861729 
L 772.673606 163.861729 
L 775.16806 189.974876 
L 785.145874 189.974876 
L 787.640326 163.861729 
L 792.629234 163.861729 
L 795.123687 137.748582 
L 802.607048 137.748582 
L 805.101501 163.861729 
L 812.584861 163.861729 
L 812.584861 163.861729 
" style="fill:none;stroke:#ff0000;stroke-linecap:square;stroke-width:1.5;"/>
   </g>
   <g id="line2d_26">
    <path clip-path="url(#pe99a35e705)" d="M 66.743277 82.858747 
L 69.237731 74.763672 
L 71.732184 111.739888 
L 74.226637 113.411129 
L 76.721091 44.472421 
L 79.215544 42.696727 
L 81.709998 76.33046 
L 84.204451 67.974253 
L 86.698905 64.266187 
L 89.193358 47.03151 
L 91.687812 84.843346 
L 94.182265 77.479439 
L 96.676718 41.965559 
L 99.171172 62.281587 
L 101.665626 76.278234 
L 104.160079 82.806521 
L 106.654532 108.710763 
L 109.148986 125.109819 
L 111.643439 83.172105 
L 114.137893 124.639782 
L 116.632346 108.867442 
L 119.1268 100.563461 
L 121.621253 71.055605 
L 124.115706 74.293635 
L 126.61016 70.376663 
L 129.104613 62.594945 
L 131.599067 101.294629 
L 134.093521 79.202907 
L 136.587974 87.976924 
L 139.082427 78.941775 
L 141.576881 80.351885 
L 144.071334 87.350208 
L 146.565787 81.239732 
L 149.060241 72.726846 
L 151.554695 86.357909 
L 154.049148 120.618358 
L 156.543602 80.456338 
L 159.038055 90.483786 
L 161.532508 97.847694 
L 164.026962 44.21129 
L 166.521415 57.999031 
L 169.015869 64.527318 
L 171.510322 75.91265 
L 174.004776 86.566814 
L 176.499229 74.241409 
L 178.993683 72.047904 
L 183.98259 99.205577 
L 186.477043 97.429883 
L 188.971497 97.89992 
L 191.46595 97.89992 
L 193.960403 103.018097 
L 196.454857 97.691015 
L 198.94931 117.589233 
L 201.443764 94.139627 
L 203.938217 74.032504 
L 206.432671 73.562467 
L 208.927124 86.61904 
L 211.421578 104.323754 
L 213.916031 125.214272 
L 216.410484 115.343502 
L 218.904938 99.623388 
L 221.399392 121.401752 
L 223.893845 137.382998 
L 226.388299 93.356232 
L 228.882752 103.331454 
L 231.377205 135.346173 
L 233.871659 122.341825 
L 236.366112 116.910291 
L 238.860566 92.102801 
L 241.355019 120.096095 
L 243.849473 95.393058 
L 246.343926 114.716786 
L 248.838379 117.380327 
L 251.332833 100.093424 
L 253.827287 94.766342 
L 256.32174 108.031821 
L 258.816193 135.032815 
L 261.310647 115.709086 
L 263.8051 120.827263 
L 266.299553 125.214272 
L 268.794007 142.971211 
L 271.288461 148.872783 
L 273.782914 130.959164 
L 276.277368 125.579856 
L 278.771821 107.091748 
L 281.266274 117.06697 
L 283.760728 111.322077 
L 286.255181 103.54036 
L 288.749635 107.405105 
L 291.244088 113.149998 
L 293.738542 110.43423 
L 296.232996 91.110502 
L 298.727449 107.1962 
L 301.221902 94.66189 
L 303.716356 105.524959 
L 306.210809 95.758642 
L 308.705262 104.480433 
L 311.199716 71.316736 
L 313.69417 117.171422 
L 316.188623 85.261157 
L 318.683076 111.896567 
L 321.17753 113.515582 
L 323.671984 110.747588 
L 326.166437 117.745911 
L 328.66089 118.633758 
L 331.155344 139.942086 
L 333.649797 136.286246 
L 336.14425 107.248426 
L 338.638704 93.408459 
L 341.133158 112.471056 
L 343.627611 119.103795 
L 346.122065 106.099448 
L 348.616518 111.322077 
L 351.110971 116.858064 
L 353.605425 116.805838 
L 356.099878 101.451308 
L 358.594332 126.311024 
L 361.088785 133.152668 
L 363.583239 120.983942 
L 366.077693 129.810185 
L 368.572145 94.766342 
L 371.066599 106.047222 
L 373.561053 135.555078 
L 376.055506 126.415476 
L 378.549959 132.682632 
L 381.044413 97.586562 
L 383.538867 132.317047 
L 386.033319 137.330772 
L 388.527773 145.5303 
L 391.022227 144.12019 
L 393.51668 130.436901 
L 396.011134 130.698032 
L 398.505587 128.817886 
L 401.000041 133.570479 
L 403.494494 107.405105 
L 405.988947 79.046228 
L 408.483401 100.459008 
L 410.977854 100.563461 
L 413.472308 85.78342 
L 415.966762 92.050575 
L 420.955668 152.789755 
L 425.944575 112.41883 
L 428.439028 90.118202 
L 430.933482 119.573832 
L 433.427936 110.590909 
L 435.922389 130.802485 
L 438.416842 146.209242 
L 440.911296 155.348843 
L 443.40575 149.499498 
L 445.900203 108.136273 
L 448.394656 130.802485 
L 450.88911 119.364927 
L 453.383563 143.336795 
L 455.878016 151.327418 
L 458.37247 163.078335 
L 460.866924 148.611651 
L 463.361377 138.114166 
L 465.855831 122.394052 
L 468.350284 118.89489 
L 470.844737 114.455655 
L 473.339191 135.920662 
L 475.833644 150.805156 
L 478.328098 130.645806 
L 480.822551 155.453296 
L 483.317005 148.402746 
L 485.811459 158.116837 
L 488.305912 162.399393 
L 490.800365 136.912961 
L 493.294819 149.865082 
L 495.789272 152.476397 
L 498.283725 171.904578 
L 500.778179 149.969535 
L 503.272633 161.615998 
L 505.767086 151.17074 
L 508.261539 158.743552 
L 510.755993 169.711074 
L 513.250446 145.008037 
L 515.7449 151.640776 
L 518.239353 182.245384 
L 520.733807 160.519246 
L 523.22826 140.673254 
L 525.722713 159.318041 
L 528.217167 163.339466 
L 530.71162 155.871106 
L 533.206074 176.187134 
L 535.700528 178.119507 
L 538.194981 161.824904 
L 540.689434 168.35319 
L 543.183888 144.851358 
L 545.678341 160.780378 
L 548.172794 143.70238 
L 550.667248 146.522599 
L 553.161702 158.743552 
L 555.656155 163.182787 
L 558.150609 163.913955 
L 560.645062 156.967858 
L 563.139516 163.861729 
L 565.633969 159.683625 
L 568.128422 174.098083 
L 570.622876 185.013378 
L 573.117329 200.785719 
L 575.611783 188.408087 
L 578.106236 187.363561 
L 580.60069 168.35319 
L 583.095143 170.598921 
L 585.589597 182.402063 
L 588.08405 189.295934 
L 590.578503 179.947427 
L 593.072957 175.351514 
L 595.56741 144.538 
L 598.061864 164.592897 
L 600.556317 172.58352 
L 603.050771 142.971211 
L 605.545225 165.480744 
L 608.039678 172.322389 
L 610.534131 192.899548 
L 613.028585 179.895201 
L 615.523038 165.428518 
L 618.017491 189.243708 
L 620.511945 178.067281 
L 623.006399 178.850675 
L 625.500852 187.415788 
L 627.995306 222.459631 
L 630.489759 189.034803 
L 632.984212 200.367908 
L 635.478666 179.581843 
L 637.973119 183.759947 
L 640.467573 198.069951 
L 642.962026 205.69499 
L 645.45648 202.822544 
L 647.950933 206.843969 
L 650.445386 196.607615 
L 652.93984 180.104106 
L 655.434294 191.959475 
L 657.928747 199.271156 
L 660.4232 198.592214 
L 662.917654 184.021078 
L 665.412107 186.11013 
L 667.90656 177.806149 
L 670.401014 176.134908 
L 672.895468 162.556072 
L 675.389921 153.990959 
L 677.884375 197.025426 
L 680.378828 196.555389 
L 682.873281 155.453296 
L 685.367735 188.042503 
L 687.862188 196.503163 
L 690.356642 163.966182 
L 692.851095 178.589544 
L 695.345549 189.034803 
L 697.840003 186.162356 
L 700.334456 178.119507 
L 702.828909 149.551724 
L 705.323363 160.46702 
L 707.817816 178.902902 
L 710.312269 186.057904 
L 712.806723 167.204212 
L 715.301177 171.486768 
L 717.79563 152.528623 
L 720.290083 148.716104 
L 722.784537 144.224642 
L 725.278991 170.7556 
L 727.773444 155.871106 
L 730.267897 167.047533 
L 732.762351 160.832604 
L 735.256804 184.229984 
L 737.751257 180.887501 
L 740.245711 181.200859 
L 742.740165 175.560419 
L 745.234618 186.893525 
L 747.729072 171.538994 
L 750.223525 197.80882 
L 752.717978 191.071628 
L 755.212432 174.881477 
L 757.706885 175.351514 
L 760.201339 179.007354 
L 762.695792 172.844652 
L 765.190246 155.975559 
L 767.6847 164.331766 
L 770.179152 169.867753 
L 772.673606 177.858376 
L 775.16806 193.630716 
L 777.662513 171.643447 
L 780.156966 159.318041 
L 782.65142 160.258115 
L 785.145874 163.443919 
L 787.640326 173.784725 
L 790.13478 146.835957 
L 792.629234 143.597927 
L 795.123687 154.774354 
L 797.618141 171.330089 
L 800.112594 175.82155 
L 802.607048 147.044862 
L 805.101501 163.913955 
L 807.595954 157.594574 
L 810.090408 185.901225 
L 812.584861 162.556072 
L 812.584861 162.556072 
" style="fill:none;stroke:#008000;stroke-linecap:square;stroke-width:1.5;"/>
   </g>
   <g id="patch_3">
    <path d="M 63.01407 231.917812 
L 63.01407 23.837812 
" style="fill:none;stroke:#000000;stroke-linecap:square;stroke-linejoin:miter;stroke-width:0.8;"/>
   </g>
   <g id="patch_4">
    <path d="M 816.31407 231.917812 
L 816.31407 23.837812 
" style="fill:none;stroke:#000000;stroke-linecap:square;stroke-linejoin:miter;stroke-width:0.8;"/>
   </g>
   <g id="patch_5">
    <path d="M 63.014069 231.917812 
L 816.314069 231.917812 
" style="fill:none;stroke:#000000;stroke-linecap:square;stroke-linejoin:miter;stroke-width:0.8;"/>
   </g>
   <g id="patch_6">
    <path d="M 63.014069 23.837812 
L 816.314069 23.837812 
" style="fill:none;stroke:#000000;stroke-linecap:square;stroke-linejoin:miter;stroke-width:0.8;"/>
   </g>
   <g id="text_26">
    <!-- FIFA Dataset -->
    <defs>
     <path d="M 9.8125 72.90625 
L 51.703125 72.90625 
L 51.703125 64.59375 
L 19.671875 64.59375 
L 19.671875 43.109375 
L 48.578125 43.109375 
L 48.578125 34.8125 
L 19.671875 34.8125 
L 19.671875 0 
L 9.8125 0 
z
" id="DejaVuSans-70"/>
     <path d="M 9.8125 72.90625 
L 19.671875 72.90625 
L 19.671875 0 
L 9.8125 0 
z
" id="DejaVuSans-73"/>
     <path d="M 34.1875 63.1875 
L 20.796875 26.90625 
L 47.609375 26.90625 
z
M 28.609375 72.90625 
L 39.796875 72.90625 
L 67.578125 0 
L 57.328125 0 
L 50.6875 18.703125 
L 17.828125 18.703125 
L 11.1875 0 
L 0.78125 0 
z
" id="DejaVuSans-65"/>
     <path d="M 19.671875 64.796875 
L 19.671875 8.109375 
L 31.59375 8.109375 
Q 46.6875 8.109375 53.6875 14.9375 
Q 60.6875 21.78125 60.6875 36.53125 
Q 60.6875 51.171875 53.6875 57.984375 
Q 46.6875 64.796875 31.59375 64.796875 
z
M 9.8125 72.90625 
L 30.078125 72.90625 
Q 51.265625 72.90625 61.171875 64.09375 
Q 71.09375 55.28125 71.09375 36.53125 
Q 71.09375 17.671875 61.125 8.828125 
Q 51.171875 0 30.078125 0 
L 9.8125 0 
z
" id="DejaVuSans-68"/>
     <path d="M 34.28125 27.484375 
Q 23.390625 27.484375 19.1875 25 
Q 14.984375 22.515625 14.984375 16.5 
Q 14.984375 11.71875 18.140625 8.90625 
Q 21.296875 6.109375 26.703125 6.109375 
Q 34.1875 6.109375 38.703125 11.40625 
Q 43.21875 16.703125 43.21875 25.484375 
L 43.21875 27.484375 
z
M 52.203125 31.203125 
L 52.203125 0 
L 43.21875 0 
L 43.21875 8.296875 
Q 40.140625 3.328125 35.546875 0.953125 
Q 30.953125 -1.421875 24.3125 -1.421875 
Q 15.921875 -1.421875 10.953125 3.296875 
Q 6 8.015625 6 15.921875 
Q 6 25.140625 12.171875 29.828125 
Q 18.359375 34.515625 30.609375 34.515625 
L 43.21875 34.515625 
L 43.21875 35.40625 
Q 43.21875 41.609375 39.140625 45 
Q 35.0625 48.390625 27.6875 48.390625 
Q 23 48.390625 18.546875 47.265625 
Q 14.109375 46.140625 10.015625 43.890625 
L 10.015625 52.203125 
Q 14.9375 54.109375 19.578125 55.046875 
Q 24.21875 56 28.609375 56 
Q 40.484375 56 46.34375 49.84375 
Q 52.203125 43.703125 52.203125 31.203125 
z
" id="DejaVuSans-97"/>
     <path d="M 18.3125 70.21875 
L 18.3125 54.6875 
L 36.8125 54.6875 
L 36.8125 47.703125 
L 18.3125 47.703125 
L 18.3125 18.015625 
Q 18.3125 11.328125 20.140625 9.421875 
Q 21.96875 7.515625 27.59375 7.515625 
L 36.8125 7.515625 
L 36.8125 0 
L 27.59375 0 
Q 17.1875 0 13.234375 3.875 
Q 9.28125 7.765625 9.28125 18.015625 
L 9.28125 47.703125 
L 2.6875 47.703125 
L 2.6875 54.6875 
L 9.28125 54.6875 
L 9.28125 70.21875 
z
" id="DejaVuSans-116"/>
    </defs>
    <g transform="translate(395.760945 17.837812)scale(0.14 -0.14)">
     <use xlink:href="#DejaVuSans-70"/>
     <use x="57.519531" xlink:href="#DejaVuSans-73"/>
     <use x="87.011719" xlink:href="#DejaVuSans-70"/>
     <use x="135.40625" xlink:href="#DejaVuSans-65"/>
     <use x="203.814453" xlink:href="#DejaVuSans-32"/>
     <use x="235.601562" xlink:href="#DejaVuSans-68"/>
     <use x="312.603516" xlink:href="#DejaVuSans-97"/>
     <use x="373.882812" xlink:href="#DejaVuSans-116"/>
     <use x="413.091797" xlink:href="#DejaVuSans-97"/>
     <use x="474.371094" xlink:href="#DejaVuSans-115"/>
     <use x="526.470703" xlink:href="#DejaVuSans-101"/>
     <use x="587.994141" xlink:href="#DejaVuSans-116"/>
    </g>
   </g>
   <g id="legend_1">
    <g id="patch_7">
     <path d="M 456.35157 60.122813 
L 805.11407 60.122813 
Q 808.31407 60.122813 808.31407 56.922813 
L 808.31407 35.037812 
Q 808.31407 31.837812 805.11407 31.837812 
L 456.35157 31.837812 
Q 453.15157 31.837812 453.15157 35.037812 
L 453.15157 56.922813 
Q 453.15157 60.122813 456.35157 60.122813 
z
" style="fill:#ffffff;opacity:0.8;stroke:#cccccc;stroke-linejoin:miter;"/>
    </g>
    <g id="line2d_27">
     <path d="M 459.55157 44.795312 
L 491.55157 44.795312 
" style="fill:none;stroke:#0000ff;stroke-linecap:square;stroke-width:1.5;"/>
    </g>
    <g id="line2d_28"/>
    <g id="text_27">
     <!-- Ours -->
     <defs>
      <path d="M 39.40625 66.21875 
Q 28.65625 66.21875 22.328125 58.203125 
Q 16.015625 50.203125 16.015625 36.375 
Q 16.015625 22.609375 22.328125 14.59375 
Q 28.65625 6.59375 39.40625 6.59375 
Q 50.140625 6.59375 56.421875 14.59375 
Q 62.703125 22.609375 62.703125 36.375 
Q 62.703125 50.203125 56.421875 58.203125 
Q 50.140625 66.21875 39.40625 66.21875 
z
M 39.40625 74.21875 
Q 54.734375 74.21875 63.90625 63.9375 
Q 73.09375 53.65625 73.09375 36.375 
Q 73.09375 19.140625 63.90625 8.859375 
Q 54.734375 -1.421875 39.40625 -1.421875 
Q 24.03125 -1.421875 14.8125 8.828125 
Q 5.609375 19.09375 5.609375 36.375 
Q 5.609375 53.65625 14.8125 63.9375 
Q 24.03125 74.21875 39.40625 74.21875 
z
" id="DejaVuSans-79"/>
     </defs>
     <g transform="translate(504.35157 50.395312)scale(0.16 -0.16)">
      <use xlink:href="#DejaVuSans-79"/>
      <use x="78.710938" xlink:href="#DejaVuSans-117"/>
      <use x="142.089844" xlink:href="#DejaVuSans-114"/>
      <use x="183.203125" xlink:href="#DejaVuSans-115"/>
     </g>
    </g>
    <g id="line2d_29">
     <path d="M 573.99907 44.795312 
L 605.99907 44.795312 
" style="fill:none;stroke:#ff0000;stroke-linecap:square;stroke-width:1.5;"/>
    </g>
    <g id="line2d_30"/>
    <g id="text_28">
     <!-- HPA -->
     <defs>
      <path d="M 9.8125 72.90625 
L 19.671875 72.90625 
L 19.671875 43.015625 
L 55.515625 43.015625 
L 55.515625 72.90625 
L 65.375 72.90625 
L 65.375 0 
L 55.515625 0 
L 55.515625 34.71875 
L 19.671875 34.71875 
L 19.671875 0 
L 9.8125 0 
z
" id="DejaVuSans-72"/>
     </defs>
     <g transform="translate(618.79907 50.395312)scale(0.16 -0.16)">
      <use xlink:href="#DejaVuSans-72"/>
      <use x="75.195312" xlink:href="#DejaVuSans-80"/>
      <use x="129.123047" xlink:href="#DejaVuSans-65"/>
     </g>
    </g>
    <g id="line2d_31">
     <path d="M 682.40407 44.795312 
L 714.40407 44.795312 
" style="fill:none;stroke:#008000;stroke-linecap:square;stroke-width:1.5;"/>
    </g>
    <g id="line2d_32"/>
    <g id="text_29">
     <!-- Workload -->
     <defs>
      <path d="M 3.328125 72.90625 
L 13.28125 72.90625 
L 28.609375 11.28125 
L 43.890625 72.90625 
L 54.984375 72.90625 
L 70.3125 11.28125 
L 85.59375 72.90625 
L 95.609375 72.90625 
L 77.296875 0 
L 64.890625 0 
L 49.515625 63.28125 
L 33.984375 0 
L 21.578125 0 
z
" id="DejaVuSans-87"/>
      <path d="M 9.078125 75.984375 
L 18.109375 75.984375 
L 18.109375 31.109375 
L 44.921875 54.6875 
L 56.390625 54.6875 
L 27.390625 29.109375 
L 57.625 0 
L 45.90625 0 
L 18.109375 26.703125 
L 18.109375 0 
L 9.078125 0 
z
" id="DejaVuSans-107"/>
      <path d="M 9.421875 75.984375 
L 18.40625 75.984375 
L 18.40625 0 
L 9.421875 0 
z
" id="DejaVuSans-108"/>
     </defs>
     <g transform="translate(727.20407 50.395312)scale(0.16 -0.16)">
      <use xlink:href="#DejaVuSans-87"/>
      <use x="93.001953" xlink:href="#DejaVuSans-111"/>
      <use x="154.183594" xlink:href="#DejaVuSans-114"/>
      <use x="195.296875" xlink:href="#DejaVuSans-107"/>
      <use x="253.207031" xlink:href="#DejaVuSans-108"/>
      <use x="280.990234" xlink:href="#DejaVuSans-111"/>
      <use x="342.171875" xlink:href="#DejaVuSans-97"/>
      <use x="403.451172" xlink:href="#DejaVuSans-100"/>
     </g>
    </g>
   </g>
  </g>
 </g>
 <defs>
  <clipPath id="pe99a35e705">
   <rect height="208.08" width="753.3" x="63.01407" y="23.837812"/>
  </clipPath>
 </defs>
</svg>
